<svg xmlns="http://www.w3.org/2000/svg" viewBox="0 0 835.12 1023.21"><title>Asset 3</title><g id="Layer_2" data-name="Layer 2"><g id="Layer_1-2" data-name="Layer 1"><path d="M816,1c11.22,34.39,17,69.16,7.31,105-.13.47.24,1.08.38,1.62a9.33,9.33,0,0,0,1.67-1.65c17-28.37,41.21-48.62,71.07-62.38,1.49-.69,3.3-.67,5-1-.1,3.51.79,7.43-.46,10.46-12.08,29.34-30.11,54.12-56.62,72.19a32.35,32.35,0,0,0-2.91,2.46,27.62,27.62,0,0,0,3.77-.56c19.76-5.79,39.69-9.48,60.15-4,2.44.66,4.45,2.9,6.66,4.4-1.63,1.87-2.91,4.38-5,5.5a143.25,143.25,0,0,1-61,17.8c-1.43.08-2.85.35-4.28.54,1.1,1.09,2.13,2.29,3.32,3.27,4.11,3.36,8.49,6.42,12.35,10,3.16,3,9.36,5.81,6,10.94-3.58,5.54-9.34,1.53-13.38-.69-10.72-5.91-21.05-12.53-31.56-18.81a22.8,22.8,0,0,0-3.38-1.38,13.15,13.15,0,0,0-.79,3.65c.63,8.08,1.32,16.17,2.15,24.24.45,4.29-1.33,6.92-5.52,7.21s-5.72-2.92-4.89-6.34c6.4-26.26.17-30.66-21.63-13.7-6.29,4.9-20.66,12.29-23,6.11-3.75-9.8,10.9-14.77,17.72-21.82a37.7,37.7,0,0,1,3.65-3c-1.42-.16-2.83-.39-4.26-.47a138.38,138.38,0,0,1-63.14-18.81c-1.9-1.11-3.08-3.44-4.6-5.2,1.83-1.38,3.47-3.44,5.53-4,18.87-5.29,37.52-2.62,56.08,2,1.72.43,3.49.67,5.23,1-1.28-1.38-2.36-3.06-3.88-4.11-25.06-17.28-40.31-41.88-51.7-69.31-1.26-3-3.67-6.84-.22-9.61,3.26-2.6,5.8,1,8.31,2.57,25.77,15.8,50.75,32.5,65.51,60.28a6.66,6.66,0,0,0,1.25,1.3,9,9,0,0,0,.15-2.62C788.58,68.94,793.49,34.72,805,1Zm5.16,70c-.7-20.82-3.55-36.9-8.5-52.61a39.47,39.47,0,0,0-2.48-5.17c-.74,1.74-1.57,3.45-2.19,5.24-12.79,37.09-5.36,73.94,1.36,110.78a11.05,11.05,0,0,0,1.26,2.62c.45-.65,1.2-1.25,1.31-2C815.26,108.86,818.53,87.82,821.16,71ZM890,58.2c-.11-.21-.48-1.17-.61-1.14a17.06,17.06,0,0,0-3.71,1.25c-32.57,17-51.51,45.92-67.78,77.21a6.78,6.78,0,0,0-.34,2.15c.53-.39,1.08-.76,1.59-1.17,7.87-6.36,15.56-13,23.64-19C863.5,101.85,879.41,82.47,890,58.2ZM732,55.67c.59,2,.79,3.11,1.19,4.09,13.54,33.7,42.16,53.81,68.53,75.94a6.63,6.63,0,0,0,2.1.75,18.15,18.15,0,0,0-.91-2.63c-8.5-17-18.31-33.06-30.95-47.3C760.93,74.07,747.21,65.07,732,55.67Zm10.44,71.11c-3.69.35-7.65.65-11.59,1.14a19.23,19.23,0,0,0-3.76,1.29,18.83,18.83,0,0,0,3.29,2.62c22.11,10.85,46,11.59,69.9,12.13a10.77,10.77,0,0,0,1.93-.31c-.56-.51-1-1.25-1.68-1.51C781.94,134.59,763,128.17,742.46,126.78Zm94.95,17.53c18.92.69,36.58-4.3,53.8-11.4a38.11,38.11,0,0,0,4.58-2.63c-1.93-.72-3.83-1.94-5.8-2.08-18.7-1.3-36.47,3-53.8,9.48-4.37,1.64-8.56,3.75-12.84,5.64ZM780.54,166c6.18-4.33,12.59-8.8,19-13.28-.43-.25-.95-.81-1.28-.71-8,2.26-15.62,5.27-21.1,12Zm68.37-3c-8.21-4-15.25-7.36-22.32-10.71-.09,0-.5.58-.77.89,6.79,3.94,13.58,7.89,20.41,11.77C846.4,165,847,164.4,848.91,163Z" transform="translate(-79.78 -1)"/><path d="M209,481.18c-1.37-27.6,16.89-46.06,40.74-41,1.89.4,4.71,1.75,5,3.1.37,1.79-.91,4.33-2.21,6-3.8,4.82-8,9.3-11.95,14-3.7,4.47-5.3,9.38.24,13.37,5.12,3.68,10.82,7.44,17,1.63,2.4-2.26,4.2-5.16,6.61-7.41,3.65-3.4,5.77-11.16,11.95-8.33S282.46,473,281.78,479c-2.68,23.93-21.07,36.51-44.64,32.18-8.22-1.52-9.66,8.62-15.14,12.39-16.11,11.08-12.72,19.32,2.07,30,15.35,11.08,28.11,25.75,42,38.87,5.4,5.12,6.55,11.18.37,15.76-7.5,5.55-13.37,20.9-25.31,10.47-19-16.55-36-35.29-53.63-53.33-2.62-2.69-3.23-3.47-6.31-.22-16.1,17-32.51,33.68-49.06,50.22-8.77,8.78-15.77,3.23-22.25-3.65-6.83-7.26-14.63-14.3-3.59-24.34,15.59-14.16,30.59-29,46.72-42.51,7.44-6.22,5.53-9.53-.28-14.59-19.24-16.77-23.86-16.33-39,5.34-3.12,4.49-5.82,4-9.36,1.23-22.53-17.82-20.75-17-2.84-39.24,9.13-11.31,13-28.21,26.25-35.9,8.2-4.76,17.54-7.1,25.37-13.9,13.59-11.82,18.31,5.37,25.24,10.83,11.55,9.1-2.14,13.67-6.33,19.42-3.58,4.91-8.45,8.89-12.75,13.28,8,7,15.4,14.86,24.2,20.61C188,514.86,209.36,488.66,209,481.18ZM263.42,601c-6.13-5.55-11.3-10.59-16.85-15.18-31.3-25.9-57.65-56.86-87-84.74-2.22-2.11-5.18-5.88-8.73-1.9-2.85,3.2,1.43,4.07,2.75,5.66,4.2,5,11.19,7.64,13,14.8-7.58-1-11-7.7-16.26-11.86-2.4-1.9-4.67-4.8-7.48-1.43-2.65,3.19,1.29,4.5,2.86,6.11q47.78,48.69,95.76,97.18c1.9,1.92,6,4.52,7.17,3.79C253.66,610.11,257.94,605.74,263.42,601Zm-17.24-96.56c17.25.71,23.6-9.83,27.12-23.38.59-2.25.16-4.77.2-7.17-1.73,1.41-4,2.49-5.12,4.27-9.59,14.85-21.83,14.09-33.09,3.68-11.83-10.93-4.22-20.91,4.76-29.7A15.8,15.8,0,0,0,242,449c-1-.23-2.22-.88-3.12-.61-13.22,3.93-24.55,11.82-22.19,26.34,2.55,15.78-4,24.75-15,33.14-3.42,2.6-7.11,5.32-9.42,8.81-5.15,7.76,4.54,9.13,6.9,13.71,1.93,3.74,3.93.71,6.62-.84C219.81,521.45,222,493.93,246.18,504.39ZM107.1,530.14c.62-.54,1.14-.93,1.6-1.38,20.77-20.23,42.19-39.86,61.93-61.05,6.1-6.56-6.35-8.79-8.71-14.16-1.33-3-3.68-.22-5.07,1.17Q128.21,483.28,99.73,512c-1.63,1.64-3.73,5.32-3.06,6.3C99.6,522.57,103.48,526.18,107.1,530.14Zm14.83,82.4a43.14,43.14,0,0,0,4.76-3.58q23.19-23.84,46.24-47.82c1.74-1.82,6-3.25,3.07-6.95-3.34-4.27-5.26-.41-7.56,1.67-5,4.53-10.15,8.9-15.23,13.33,2.38-7.55,8.71-11.73,14.18-16.63,1.55-1.4,4.23-2.59,1.6-5-1.88-1.72-3.42-4.44-7-1-15.85,15.29-32.13,30.13-48.16,45.24-2,1.89-5.91,3.83-3.54,7.22C113.64,603.83,117.92,608,121.93,612.54Z" transform="translate(-79.78 -1)"/><path d="M819.59,624.29c-24.4-.7-41.84-1.57-59.22-5-13.47-2.66-16.5-10.77-13.78-22,8.06-33.43,6.65-67.77,10.1-101.63.2-2-3.33-4.29-5-6.55-7.25-10-7.45-20,.47-29.61,7.15-8.69,16.16-12.83,27.24-8.28,4.46,1.83,4.74-2.06,6.29-3.66,6.06-6.27,13.1-9.16,21.54-6.52,17.62,5.51,35.3,10.9,52.61,17.28,8.84,3.26,13.35,11.33,10.95,20.44-1.87,7.13.8,6.46,5.76,6.57,32.62.74,39.17,11.84,38.25,51.15-.71,30.32-7.44,53.36-41.1,59.82-4.07.78,0,4,0,6.15.31,10.71-5,16.37-15.41,17.55C843.19,621.67,828,623.35,819.59,624.29Zm40.34-75.19c0-4.15.78-8.49-.17-12.41-1.79-7.45-.7-22.24-3.84-21.46-23.27,5.8-49.48-9.47-70.67,9.71-2,1.81-6.59,2.93-8.85,1.9-20.95-9.61-12.69,8.67-14.65,15.8s-3.53,15.49-1.91,22.53c2.29,9.94-13.91,26.06,9.36,29.6,20.91,3.19,41.84,5.25,62.91,3,32.08-3.48,32-3.7,28.48-35.7C860.12,557.76,860.16,553.42,859.93,549.1ZM765.66,501c.87,8.26.8,15.55,8.86,18.31,6.06,2.08,10.64-1.79,12.46-6.44,2.41-6.14,4.45-13.3,3.66-19.65-2.2-17.64,17.7-1.31,18.71-12.92,1.52.32,3.6.12,4.47,1.05,5.64,6,12.11,4.6,18.11,1.61,4.13-2.05,6.54-2,10.81.41,5.56,3.2,12.84,4.47,18.57-.47,4.25-3.68,3.29-8.7.81-13.25-3.59-6.58-9.47-7-15.85-5.45-3,.73-4.94.34-6.68-2.46-5.13-8.25-37.18-16-45.58-11-1.94,1.15-4.28,2.75-5,4.67-2.62,7.35-6.57,5.4-11.87,3-8.2-3.66-14.64.93-19.38,7-5,6.38-5.22,17.25,1.48,18.62C774.55,487.11,763.57,496.59,765.66,501ZM892.49,533l-1.35-.14c0-4.8.78-9.76-.15-14.38-2.65-13.2-13.3-6.41-20.7-7.62-3.16-.51-5.27.32-4.94,4.51,1.07,13.86,1.2,27.83,3,41.58.62,4.73-2.94,12.85,3.61,14a14.46,14.46,0,0,0,16.6-10.63C890.84,551.5,891.26,542.16,892.49,533Zm-73.79,83.2c14.16-.8,28.44-.64,42.13-5.42,5.35-1.86,4.66-6,4-9.83-.76-4.24-3.68-1.27-5.49-.93-32.84,6.09-65.58,6.41-98.31-.93-2-.45-5.57-5.37-6.8.59-.89,4.32-2.17,9,4.89,10.76A198.51,198.51,0,0,0,818.7,616.22Zm60.18-112.53c7.67-.27,18.38.09,18.87,14.41.43,12.37-.62,24.78-.49,37.17.17,16.41-10.37,21.75-24,23.5-4.76.61-3.16,3.22-3,5.5.16,3,1.4,4,4.83,3.11,23.46-5.71,33.59-23.13,32.31-56.19S901,491.5,875.75,492.34c-3.41.11-9.9-4.92-11.2,3.62C862.9,506.75,870.52,503.45,878.88,503.69Zm-65.07,6.23c13.53-.87,26.31-1.58,39.08-2.57,7.11-.55,3.37-6.22,4.06-9.68.75-3.72-1.9-3.55-4.63-3.76-13.31-1-26.62-3.22-39.88-2.92-5.09.12-14.56-2.63-14.81,9.86C797.3,518.16,809.8,504.91,813.81,509.92Z" transform="translate(-79.78 -1)"/><path d="M617.32,450c27.68,8.59,55.95,17.31,84.15,26.27a6.36,6.36,0,0,1,3.5,4.48c1,11.16,2.55,23.07,1.72,33.36-.8,9.79-2.34,17.13,3.06,26.28s-3.79,14-10,18.71c-24.1,18.22-48.59,35.95-72.3,54.65-8.79,6.94-16.48,8.21-26.62,3.59-22.57-10.26-46.86-16.64-68-30.3-9.63-6.23-16.56-15.24-11.42-25.75,6.09-12.44-2-21.95-2.33-32.8-.67-22.52,18.56-28.87,32.91-38.66C570.8,477,590.19,465.12,609.39,453,611.38,451.69,613.89,451.24,617.32,450Zm-90,75.8c-.5,10.32,4.14,16.11,10.1,20.88,17.94,14.38,41,17.49,61.07,27.16,5.06,2.44,13.06,6.41,16.06,4.35,28.19-19.33,55.69-39.68,83.1-60.11,3.71-2.77,2.66-7.69-.19-11.26s-5.82-2.58-9.36,0c-16,11.61-31.91,23.44-48.61,34-6.2,3.92-10.09,13.62-20.06,10.19-22.74-7.83-45.42-15.81-68.18-23.57-2.8-.95-5.93-.93-8.91-1.36.37,4.59,2,8.1,6.66,10.11q30.63,13.13,61.06,26.73c1.67.75,2.59,3.17,3.86,4.81-.71.43-1.63,1.39-2.09,1.21-24.61-9.82-50.2-17.52-72.92-31.49-6.17-3.79-5.84-11.95-3.1-17.78,2.65-5.63,8.16-1.81,12.32-.45,19.51,6.39,38.85,13.31,58.53,19.11,5.77,1.71,12.09,7.2,18.22,2.89,23.34-16.42,46.35-33.33,69.32-50.26a11.79,11.79,0,0,0,4-6.89c.16-.83-3.51-2.93-5.69-3.58-16.33-4.91-32.51-10.71-49.19-13.94-10.63-2.07-20.54-12.13-32.46-4.66q-33.12,20.73-66.08,41.75C535.93,509.28,525.81,514.34,527.34,525.79Zm.25,41c.76,1.85,1.32,5.35,3.3,7.61,14.93,17,37.27,19.89,56.43,28.83,9,4.21,20.16,14.08,28,8.84,28.77-19.28,55.71-41.3,83.37-62.25,3.87-2.92,4.27-6.73,1.39-9.9s-6.38-7-11.52-3.62c-14.41,9.52-28.33,19.86-43.23,28.52-14.66,8.52-25.58,27.59-47.88,16.54C583,574.23,567.3,569.41,552,564c-3-1.07-7.33-5.9-9.75-1.24-2.52,4.86,2.62,7.51,6.57,9.25,20.63,9.1,41.36,18,61.95,27.18,1.7.76,2.62,3.25,3.9,4.94-2,0-4.2.5-5.91-.19-16.6-6.71-33.67-12.58-49.45-20.87-9.2-4.84-24.27-3.31-25.56-19.38-.23-2.87,6.69-7.62-.67-8.3C527.17,554.84,528.62,561.37,527.59,566.82Z" transform="translate(-79.78 -1)"/><path d="M291.67,311.76c-9.63,20.81-4.8,47.08-24.42,65.15-3,2.76.22,12.36.72,18.79.33,4.22.51,9.09-5,8.9-6.06-.21-14.08,4.77-17.74-4.67a38.24,38.24,0,0,1-2.35-9.15c-.5-4.15-3.08-4.1-6.09-3.76-3.76.43-2.27,3.06-2.4,5.25-.26,4.29,5.12,11.14-2.33,12.25s-18.11,5.23-19.86-8.87c-.28-2.32.78-8.73-4.17-6.49-8.76,3.95-23.36-9.52-26.78,8.16-2,10.23-8.86,8.21-15.07,8.32s-8.44-3.14-7.51-9.68c.45-3.07,4-8.72-3-9.93-7.68-1.32-4.64,5.55-5.16,8.27-2.83,14.75-14.59,11.89-22.87,10.05-7.49-1.66-1.61-9.15-1-14.16.74-6.29,5.87-13.95-4.79-17.14-.54-.16-1-.89-1.33-1.43-8.23-12-13.74-25.35-28.29-33.23-9.74-5.28-11.76-20-5-29.15,11.25-15.34,1.9-42.07,23.75-49.08,20.89-6.7,33-26.14,58.41-29,19.88-2.27,39.6-12.77,56.46,1.36C240,244.4,266.22,240.7,270,264.3,272.9,282.34,296.3,290.25,291.67,311.76Zm-49.88-50.82.86.09c-.87,4.73-1.54,9.5-2.71,14.15-.36,1.4-2.08,2.47-3.18,3.69-.47-1.58-1.53-3.23-1.33-4.71,3-21.92-8.17-38-29.83-41.74-8.79-1.52-17.84-1.9-25.73,3.89,3.44,3.69,7,7.23,10.21,11.13,1.06,1.31,1,3.52,1.47,5.31a33.45,33.45,0,0,1-5.38-2.07c-11.73-7-23.73-12.64-37.36-5.39-3.24,1.72-5.75,4.79-8.6,7.24,2.88,1.11,5.83,2.06,8.62,3.37,3,1.43,6.78,2.33,7.07,6.73-2.87-.12-5.85.24-8.58-.43-14.16-3.43-30-2.2-36.81,9.55-8.86,15.33-15,34-16,51.54-.78,14.23,13.76,19.4,27.44,15.25,14.83-4.51,23.48-15.14,23.94-31.26,0-.53-2.06-1.68-3.07-1.59-9.72.9-18.23-.57-19.35-12.33-1.14-12,6.25-17.06,17.15-17.84,2.69-.19,5.48,1.09,8.23,1.69-2.41,1.2-4.7,2.78-7.24,3.54-6.22,1.87-13.82,4-12,11.75,1.92,8,9.79,8,16.51,5.49,7.1-2.67,8.57.77,8.61,6.65.13,22-11.75,35.44-31.25,43.21-3.2,1.27-5.4,2.23-3.75,6.34,2.83,7,6.63,13,14.09,15.79-.34-3.1-.49-6.23-1.1-9.27-.57-2.83-1.44-5.53,1.45-7.62a57.22,57.22,0,0,0,3.06,5.34c3.63,5.08,6.6,11.06,11.33,14.79,4.12,3.25,10.28,3.92,15.53,5.73-2.23-3.32-4.59-6.57-6.65-10a26.61,26.61,0,0,1-1.85-5.07c1.84.61,4.07.76,5.45,1.91,12.87,10.72,26.79,18.11,44.24,14.11,5.53-1.27,11.95-6.2,16.07-4.59,10.52,4.1,20.23,4.74,30.18,0,27.58-13.07,24.05-41.49,31.16-64.52,1.85-6-1.35-12.14-4.94-17.3-1.52-2.2-3.79-3.87-5.73-5.78-1,2.18-2.21,4.3-3.06,6.54-2.27,6-4.84,11.79-10.92,14.85-1.38.69-3.34.24-5,.32.42-1.5.44-3.3,1.31-4.46,9-12,13.17-25,7.6-39.54-3.29-8.61-10.39-13.06-19.46-14.35Q242.13,256,241.79,260.94ZM136.36,397.58c8-2.67,6.6-9.59,8.29-14.46.31-.92-3.52-3.28-5.44-5-1.91,5.39-4,10.74-5.58,16.21C133.41,395.07,135.35,396.43,136.36,397.58Zm121.21.69c.54-.71,2.26-2,2.09-3-.77-4.32-2.08-8.55-3.2-12.81-2,1.87-7.3.35-6.24,5.19C251.07,391.61,249.26,397.59,257.57,398.27Zm-38.43-11.39c1.43,4.85-1,10.8,5.84,11.76.84.11,3-2.14,2.86-3.15-.42-4.43.63-10.21-6.6-10.24C220.46,385.25,219.68,386.43,219.14,386.88Zm-43.41.77c-1.74-1.12-3.94-3.49-5-3.06-4.79,2-2.58,7.1-3.64,10.81-.17.61,1.88,2.72,2.65,2.59C175.22,397.11,173.61,392,175.73,387.65Z" transform="translate(-79.78 -1)"/><path d="M575.13,241c14.73-1.88,29.19,4.49,39-10.48,2.71-4.15,10.4-4.38,15,1,14.22,16.44,33.43,7.69,50.42,10.09,3.69.52,9.31-2.16,9.62,4.17.34,6.85-5.54,5.23-9.55,5.11-12.73-.4-25.45-1.09-38.18-1.55-1.39-.05-2.81.66-4.21,1,1.06.68,2,1.75,3.19,2,20.73,4.34,30.62,22.45,36.15,38.05,4.93,13.92,9.62,30.79,1.41,49C672.93,350.62,670,363,663.91,375c-14,27.32-60.73,39-78.5,14.13-9.34-13.1-21.64-25.08-25-45.3-2.39-14.36,2.11-28.4-2.25-42-.78-2.43-.59-6.39.91-8.14,12.12-14.21,16.72-35.81,39-40.25,1.29-.26,2.36-1.64,3.52-2.49-1.34-.37-2.69-1.07-4-1-13.24.23-26.47.57-39.7.89-3.66.09-7.85-.13-8-4.61-.1-3.91,3.82-5,7.29-5.07C563.79,241,570.45,241,575.13,241Zm65.13,96.19c7.1-.42,14.24-.5,21.28-1.34,9.55-1.13,13.18-7.56,12.71-16.47-.22-4.25-1.72-8.92-7.18-8.28-31.09,3.61-62.21,2.71-93.38,1.63-8.86-.3-8.93,7-9,13.12,0,5.3.73,9.83,8.23,10.41C595.39,338,617.79,338.71,640.26,337.23Zm-3.38-32.77v.8c6.78-.55,13.66-.55,20.3-1.82,4.75-.91,12.74,2.69,13.48-5.26s-6-16.06-12.1-16.32a739.29,739.29,0,0,0-78.35.89c-6.84.45-13.3,8.12-13.92,16.47-.37,5,5.14,5.11,8.75,5.14C595.65,304.56,616.27,304.46,636.88,304.46Zm-57.16,39.61c-3.18,1-7.62,1.31-7.91,2.6-1.61,7-.83,14.59,6.9,17.07,9.18,2.95,20.66,6.75,27.92-.95,7.59-8,14.52-10.47,21.55-3.12,11.9,12.45,23.62,7.36,35.22,1.51,5.59-2.83,5.49-9.81,5.23-15.72,0-.51-2-1.33-3.08-1.34C636.79,344.05,608,344.07,579.72,344.07ZM589.94,374l-3.89.8c.57,1.84.78,3.9,1.76,5.5,8.58,14.06,34,18.51,51.34,9.17,6.4-3.45,11.84-7.78,14.63-14.77-5.84-.05-11.74.41-17.51-.28-8.59-1-13.9,13.4-22.78,5.68C606.46,374,598.82,375.06,589.94,374ZM653.5,272.32l1.31-.2c-2-2.13-3.75-4.58-6-6.32-19.59-14.86-45.35-13.37-63.74,3.56-.9.82-1.75,1.71-2.62,2.57a38.47,38.47,0,0,0,3.86.37C606.41,272.32,626.55,272.32,653.5,272.32Zm-33.27-30.17,7-2.68c-1.64-1.44-3.48-4.22-4.89-4-2.77.4-5.29,2.46-7.92,3.83Z" transform="translate(-79.78 -1)"/><path d="M822,1024.21c-18.07-1.26-33.55.29-48.17-5.19-3-1.12-7.81-4.62-7.5-6.12,4.29-20.6-18-27.24-22.17-43.21-2.86-11-6.69-21.73-8.88-32.83-1.47-7.42.21-14.89,10.27-14.89,17.2,0,22.22-18.59,36.56-23.69,4.73-1.69,4.34-11,0-16.45s-4-11.29-2.5-17c1.32-5.24,6.43-4.84,10.79-5,6.13-.17,12.28-.89,18.36-.46,3,.2,7.43,1.79,8.29,3.94,2.17,5.36,2.1,11.57-1.31,16.63-6.33,9.38-5.39,16.82,4.45,23,6.38,4,12.49,8.34,14.94,16.07.26.81,1.14,1.42,1.73,2.12.45-.84.85-1.7,1.35-2.51,10.93-17.33,16.35-38,31.59-52.7,6.61-6.4,14.63-7.38,21.77-2.55,7.73,5.22,7.55,13.42,2.56,20.72-7.86,11.51-16.35,22.59-24.51,33.9a16.19,16.19,0,0,0-1.46,3.52,19.88,19.88,0,0,0,3.68.7c21.73,0,22.89,3.94,17.9,25.18-4.78,20.38-9.65,39.29-28.82,50.9-.27.17-.68.51-.65.72C864.82,1037.59,832,1014.33,822,1024.21Zm1.47-22.26c28-.4,49.28-17.31,55.3-43.9.94-4.17.43-6.1-4.56-5.09-39.09,8-78.3,8.64-117.26-.24-11.48-2.61-9.29,2.35-7,8.88C759.47,989.54,783.2,1002.54,823.44,1002Zm-3.35-50.63c18-1.21,39.56-2.17,60.32-8.49,4.49-1.36,4.54-6.06,5.51-9.85-2.35-.56-5-2.1-7-1.55-42.15,11.53-84.34,9.85-126.65,1-3.2-.67-8.37-4.48-9.83-.06-1.88,5.69,2.91,9.11,8.43,10.78C772.35,949.64,794.34,951.82,820.09,951.32ZM804.9,889.55c-.36-2-.7-7-1.36-7-3.53-.22-7.14.78-10.72,1.36,3.07,17.44-9.34,23.81-21.36,31.17-3.52,2.16-4.82,8-7.14,12.07,1.22.62,2.41,1.69,3.68,1.79,16.67,1.24,33.25,4.72,50.08,2.33,3.81-.54,10.18,2.58,10.93-1.79,1-5.71-1.72-12-7.36-15.84-2.87-2-5.62-4.09-8.53-6C806.81,903.52,802.44,898.52,804.9,889.55ZM844.57,930c5.94.16,9-.45,11.36-3.87,9.69-14.26,19.54-28.4,29.43-42.52,3.12-4.45,6.3-9.51,1.35-13.74s-9.61-.26-13.26,3.65c-13.9,14.86-19.21,34.64-29.46,51.59-.83,1.37-1.5,2.83-2.25,4.25ZM820,1016.23c4.44-.48,15.63-1.75,26.83-2.91,3.56-.37,6.47-1.93,5.66-5.64-.24-1.12-4.75-2.22-7.05-1.82-22.75,3.93-45.28,5.11-67.48-3.16-1-.35-3.28,1.84-4.39,3.29-1.74,2.28-.1,3.41,2,4.39C787.55,1016,800.4,1015.76,820,1016.23ZM798.7,874.87c3.42-3.87,12.89,3.16,11.5-4.26-1.58-8.47-11.49-1.71-17.5-3.38-2.65-.73-7.36-.73-6.47,3.49C787.87,878.46,794.72,871.35,798.7,874.87Z" transform="translate(-79.78 -1)"/><path d="M79.78,137.68c0-18.86,12.14-26.82,28.13-31.48.87-.26,4.11,1.56,2.44-2.22-13.89-31.37-6.42-45.77,29-55.1q46.56-12.27,93.33-23.75c13.36-3.28,26-1,33.9,11.22,7.42,11.54,9.35,24.09-.68,35.92-.77.9-3.86,2.71.74,3.76,16.32,3.71,28.07,13.67,28.89,30.55s-8.21,28.23-25,34.62c-31.22,11.88-61.7,25.71-92.76,38-11.77,4.68-24.08,2.3-31.83-7.58-6.55-8.35-11.18-7-19.49-3.51C101.76,178.67,80.38,164.25,79.78,137.68Zm63.93-21.23c-13.76-.08-14.29.59-13,1.59,4.17,3.29,4.28,21.82,14.72,4,3.41-5.82,10.55-6.68,17.11-5.8,22.42,3,34.95,22.79,28.28,44.44-.5,1.64-.84,3.32-1.26,5a50.34,50.34,0,0,0,5.62-1.62q32.6-13.61,65.13-27.31c16-6.78,32.32-14.28,26.13-36.19-4.29-15.22-25.36-20-46.32-13.38C206.2,97.93,172,107.89,143.71,116.45ZM264,54.59c.36-14.63-11.83-25.2-25.87-21.81C208.49,39.93,179,47.49,149.46,54.91a21.92,21.92,0,0,0-3,1.24c.71.65,1.42,1.31,2.15,2,13.3,11.64,16.94,25.61,10.24,42.12a12,12,0,0,0-.36,3.15,19.93,19.93,0,0,0,2.8-.45c25.86-8.22,51.87-16,77.51-24.92C250.15,74.06,263.48,70.83,264,54.59ZM87.84,139c2.22,11.68,6.29,24.75,23,24.87,13,.1,20-9,19.75-21.64-.28-15.32-8.2-26.4-24.17-26.79C93.57,115.17,88.25,124.75,87.84,139Zm55.1,8.26c2,12.57,6.63,24.88,22.32,25.69,14.63.75,19.4-10.82,19.4-22.76,0-15.47-9.42-25.51-24.74-25.68C147.22,124.4,143.61,135.08,142.94,147.3ZM111.66,81.54c1.52,13,5.43,25.26,21,26.3,14.46,1,20.81-9,20.83-22.29,0-14-6.83-24.33-21.63-24.58C119.79,60.77,112.72,68.61,111.66,81.54Z" transform="translate(-79.78 -1)"/><path d="M414.13,443.21c16.53.3,32.4,3.86,48.43,6.46,16.77,2.73,15,12.23,10.49,24.05-1.28,3.38-1.58,8.78.27,11.45,25.92,37.37,8.34,71.59-6.49,106.44-4.5,10.58-5.51,22.87-19.94,25.13-25.37,4-52.42,9.59-74.56-5-10.6-7-13.3-26.06-19.4-39.74-13.21-29.59-17.88-58.81,2.74-87.56,2.13-3,2.13-9.39.39-12.84-8.41-16.64,2.76-20.95,14.77-23.22C385.08,445.71,399.68,444.86,414.13,443.21Zm2.2,80.83c21.31-.67,39.61-3,57.07-10,2.65-1.07,3.38-2.14,2.59-5-3.49-12.72-17.92-22.28-11.07-38a8.34,8.34,0,0,0-2.28-.05,179.67,179.67,0,0,1-93.85.47c-1.29-.33-4.58-2.47-3.52,1.15,2.88,9.83-3.68,16.31-6.61,24.31-1.84,5-14.2,12.53-1,17.8C377.21,522.51,398.21,523.1,416.33,524Zm-5.2,50.7c2,0,4,.09,6,0,36.74-2,58.05-2.49,59.71-35.06.09-1.79.15-3.57.22-5.36l-4.2,1.33c-39.9,13-79.71,13.58-119.43-.85a6.68,6.68,0,0,0-2.39.06c2,11,.73,24.87,11.15,30.58C376.88,573.48,394.12,575.06,411.13,574.74Zm4.7,39.57c31.46,5.28,41.39-15.82,49.46-39.31.2-.59.3-1.22.45-1.83a14.19,14.19,0,0,0-2.63.47c-32.09,12-64.23,11.1-96.44.54-1-.32-2.24.31-3.36.5,10.15,9.52,3.79,29.47,20.85,34.19C394.43,611.72,405.26,612.57,415.83,614.31Zm2.47-161.45c-16.9.11-33.76.48-50.14,5.31a23.34,23.34,0,0,0-3.78,1.88c1.19.77,2.28,1.86,3.58,2.25,31.88,9.39,63.81,8.4,95.74.19.82-.21,1.47-1.11,2.21-1.69a14.37,14.37,0,0,0-3.08-2.17C448.41,453.53,433.38,452.9,418.3,452.86Zm-5.19,86.38c20.4-.48,41.79-1.75,61.93-10.93,4-1.83,2.9-4.58,3-7.4a27.92,27.92,0,0,0-4.5.69c-39.08,12.5-78.13,12-117.18-.16a59.3,59.3,0,0,0-6.26-1.27c-.1,3.38-1,6.41,3.71,8.41C372.41,536.54,392,538.61,413.11,539.24Z" transform="translate(-79.78 -1)"/><path d="M91.13,753.24h12a98.62,98.62,0,0,0-9.9-3.71C82.86,746.82,83,741.9,89.48,734.8c16.38-17.89,34.49-32.48,58.64-39.53,7.52-2.2,13.28-11.52,19.09-18.23,13.49-15.58,26.2-12,39.14.53a8.47,8.47,0,0,0,5.59,2.32,10.51,10.51,0,0,1,10.33,6.46c.87,2.09-1.6,6.82-3.91,8.73-5.41,4.47-2,4.84,1.55,8,19.08,17.12,35,12,51.14-4.65,4.27-4.41,11.34-11.6,18.05-6.54s3.3,14.75-.82,19.54c-20.6,23.9-3.61,45.17,3.09,67.31.64,2.12,0,6.06-1.38,7-1.92,1.24-5.85,1.42-7.79.23-10.17-6.21-21.43-11.57-29.6-19.9-14.71-15-16.79,4.67-23.51,8.39-4.78,2.64,4.06,5.82,6.63,8.6,5.3,5.71,3.08,8.11-2.64,11-12.69,6.48-24.14,10-35.34-3.77-2.05-2.52-11.73,1.17-17.88,2,1.34,2.93,2.64,5.88,4,8.79s3.37,6.34.44,8.62c-2,1.57-7,2.57-8.33,1.33-22-19.88-52.81-22.24-76.45-38.62-4.15-2.88-7.6-6.94-10.82-10.9a7.65,7.65,0,0,1-1-6.39C88.16,753.79,91,753.29,91.13,753.24ZM177,701c-34.08,1.54-53.18,10.66-74.55,33.28-5.53,5.84-5.38,8,2.73,9.89,6.51,1.51,14.23,5.19,13.32,12.44-.94,7.44-8.92,4.82-14.48,4.53a11.27,11.27,0,0,0-3.33.88c6,4.09,11.7,8.64,18,12.11,3.77,2.06,7.87,5.9,13,1,16.13-15.39,18.37-32.86,8.91-52.51-1-2-1.91-6.16-1.48-6.36,3.58-1.68,4.81,1.74,6.31,3.9,13.54,19.45,11,40.06-6.86,58.89-.39.4-5.25,1.87,0,3,40.54,8.91,75.1-1.26,103.1-32.25,2.87-3.16,4.75-3.69,7.93-.11a118.16,118.16,0,0,0,15.88,15.44c5.28,4.07,11.58,6.81,17.43,10.14-1.32-8.14-9-9.73-14.06-14.16-4.69-4.1-10.91-7.79-11.11-15.41,6.59.8,7.79,7.85,12.52,10.82,1.81,1.13,3.59,2.31,5.38,3.47.15-.5.57-1.17.39-1.48-4.61-8-4.74-20.23-18.68-19.61-1.57.08-3.25-2.42-4.88-3.73,1.77-.62,3.5-1.62,5.3-1.78,4.28-.4,11.38,1.12,12.43-.82,5-9.09,8.29-19.07,12.14-28.76a7.77,7.77,0,0,0,.14-2.33c-.71.14-1.58.05-2.1.44-9.16,6.82-19.12,12.85-27.11,20.85-5.73,5.75-8.84,6.12-15,1.14A103.73,103.73,0,0,0,177,701Zm8.15-5.86L201,684.06c-1.43-1-3-2.9-4.27-2.71-7.33,1.11-13.17,5-17.89,10.68Zm-15.79,2,17-20.07c-.62-.51-1.43-1.59-1.84-1.46-9.18,3-15.48,9.69-21.3,17Zm-3.85,96.1-4.13.79c4.8,3.31,9.59,6.64,14.47,9.83.15.09,2-1.73,1.85-2C175.06,797.25,172.06,792.93,165.54,793.24Zm34.6-97.3c7.41.87,10.15-2.49,12.52-6.44-1.06-.57-2.11-1.64-3.16-1.64-5.3,0-9.08,3-12.39,6.81Zm22.92,92.77,4.6-2.73c-2.84-2-5.6-4.21-8.62-5.94-.52-.3-2.15,1.34-3.26,2.08Zm-5.28,3.41c-3.26-2.81-5.83-5.17-8.62-7.24-.31-.23-1.85,1.23-2.82,1.9,2.85,2.39,5.68,4.81,8.62,7.08C215.16,794,216.2,793.12,217.78,792.12Z" transform="translate(-79.78 -1)"/><path d="M410.27,832.21c-12.47-1.85-27-4-41.62-6.15-20-2.94-17.36-16.4-14-30.16.55-2.25,1.61-4.4,2-6.66.83-5.31,1.38-10.67,2-16-1.87,3.94-3.44,8-5.67,11.77-2.9,4.85-7,1.68-10.69,1-19.58-3.61-28.72-11.69-19.62-33.68,8.95-21.65,13.68-45,21.5-67.19,5.73-16.25,33.6-27.49,50.1-22.46a62.76,62.76,0,0,0,42.38-1.48c14.48-5.77,45,14.26,50.42,32.8,6.76,23.17,13.64,46.32,21.09,69.28,4.51,13.91-6.78,14.83-14.3,17.63-6.7,2.51-15.8,10.86-20.5-3.21-.41-1.21-1.49-2.18-2.26-3.26a18.36,18.36,0,0,0-.44,4.26c1.36,10.17,3.62,20.28,4.13,30.48,1,19-15.94,15.38-26.16,18.27C437.13,830.7,424.68,830.59,410.27,832.21Zm16.87-129.14c-2.93,6.7,3.69,18.24-10.43,19.5-13.32,1.18-15.45-7.38-13.82-17.48,1.42-8.75-2.29-12.73-9.58-16.31-5.95-2.92-7.84-9.56-9.29-15.87-.26-1.11-1.64-3-2-2.88-12.23,3.71-26.65,4.12-31.45,19.64-8,25.79-15.72,51.65-23.91,77.36-2.85,9,5.14,7,8.26,7.81,4.39,1.1,10.79,8.42,14,.11,8.49-21.79,15.93-44,12-68.11-.27-1.66.88-3.57,1.36-5.36,1,1.57,2.31,3,2.8,4.72,8.24,28.69,1.89,57.1-.94,85.72-.8,8.09-10.93,20.7,5.31,25.35,30.21,8.65,60.59,7.32,90.75-.55,5-1.31,7.13-4.79,6.28-11.07-4.23-31.15-10.46-62.3-4.39-93.93.67-3.5,2.62-6.75,4-10.12.58,3.27,2.14,6.72,1.58,9.79-4.1,22.49,4.37,42.46,12.4,62.39,2.93,7.27,8.16.66,11.41-.45,3.5-1.2,11.47-.61,9.5-7.48-6.83-23.74-15.18-47.05-21.67-70.88-4.69-17.25-18.25-22.44-32.53-24.92-7-1.22-3.32,10-7.75,14.57C434,689.77,422.83,691.36,427.14,703.07Zm-17.86-1.86c3.87,3.95-3.9,12.81,4.69,13.3,9.79.55,5.07-8.94,4.66-12.91-1-9.58,2.61-14.74,10.56-19.16,3-1.67,4.05-6.8,6-10.36-2.88,0-5.76-.12-8.63-.08-8.44.12-16.87.33-25.31.43-3,0-6-.13-9-.2.91,4.68,2.22,9.51,7,11.39C407.44,686.84,413.53,690.85,409.28,701.21Z" transform="translate(-79.78 -1)"/><path d="M816.35,832.71c-10-1-21.4-1.75-32.68-3.45-4.59-.69-9.72-1.32-12.66-6.47-13.92-24.3-38-47-13.22-77.55,7.68-9.48,17.26-17.38,25.54-26.4,12.88-14,17.51-29.22,5.08-46.23a11.47,11.47,0,0,1-.81-12.71c2-3.84,5.52-4.85,9.64-4.72,10.93.34,21.91,0,32.79,1,9.36.82,12.55,7.63,8.9,15.4C827,697,829.21,708.8,851,727.14c32.71,27.59,32.16,52.63,8.5,87.53C847,833.09,833.22,830.28,816.35,832.71Zm-.44-84.09c-11-.57-17.17-.61-23.26-1.33-3.12-.37-6.09-1.95-9.13-3,1.7-2.64,3-5.61,5.16-7.86,13.82-14.68,23.21-30.85,19.46-52.15-.47-2.67-.91-4.59-3.6-4.79-3.77-.29-2.65,3-2.44,4.63,2.58,20.72-7,35.74-21.28,49.5-28.61,27.61-32.85,47.51-13.3,68.14,11.83,12.5,29.72,9,45,9.54,19.89.72,42.41,4,52.68-20.44,7.85-18.67,2.79-35.47-11.7-48.74C835.94,726,820.73,709.29,823.93,683c.11-.84-1.48-1.88-2.28-2.83-.84.77-2.41,1.55-2.41,2.31.12,13.43-2.75,27.29,7.1,39.14,6.16,7.4,11.47,15.52,17.15,23.31Zm-3.9,77c11.09-1.31,21.26-2.39,31.37-3.86,1.63-.23,3-2.26,4.48-3.46-.72-.37-1.51-1.16-2.14-1-20.69,3.75-41.36,1.38-62-.2a12.79,12.79,0,0,0-3.47.69c.91,1,1.69,2.6,2.75,2.8C792.83,822.37,802.74,824,812,825.58Zm-.1-154.06c7.1-2,19.5,3.78,19.49-4.83,0-7.92-12.55-1.78-19.22-3.76a1.85,1.85,0,0,0-1,0c-5.65,1.73-16.43-4.44-16.36,3.08C794.91,675.57,806.31,668.84,811.91,671.52Z" transform="translate(-79.78 -1)"/><path d="M614.87,1022.72c-36.83.13-34.81,0-36.59-40.58-1.51-34.48,8.89-64.5,22.85-94.6,2.93-6.31.89-14-2.22-21.18-4.66-10.77-1.11-17.63,11.88-15.74,6.8,1,14.65-2.76,20.24,3.3,2.61,2.84,2.52,7.21.18,10.69-5.15,7.62-3.51,16.09-3.86,24.48-.69,16.71,15.31,25.3,18.6,39.79,6.52,28.8,5.46,57.93,1.77,86.9-1.05,8.21-10.16,5.84-15.92,6.75C626.29,1023.41,620.53,1022.72,614.87,1022.72Zm26.71-46.87c.82-47.15-31.43-22.8-47.16-25.13-12.19-1.8-5.42,16.73-6.11,25.57-2.48,31.78,22.76,13.38,35,16.74C640.22,997.69,644.1,986,641.58,975.85Zm-23.41-91.16c-.72-12.5-.72-12.56-4.13-12.63-1.85,0-4.34-.77-4.1,2.57,1.27,17.51-3,32.93-14.66,46.74-4.14,4.93-8.42,17.28-3.91,18.91,11.86,4.28,5.16-8.77,8.4-13.45C609.82,912.32,621.19,897.94,618.17,884.69Zm-3.34-27c-2.64,2.5-8.75-2.32-8.53,2.41.29,6.32,7,3.19,11,3.58,2.26.22,7,1.21,6.52-2.83C623.13,855.07,617.75,859.89,614.83,857.7Zm-18.64,148.46c.88-3.33,0-5.28-4.78-5.46-3.79-.15-3.81,1.71-3.49,4.06.43,3.09-2.23,7.72,3.88,8.26C597,1013.49,596,1009.77,596.19,1006.16ZM613,927.84c-.63-1-1.51-2.41-2.4-3.81-1.82,3.34-3.76,6.62-5.34,10.07-.26.58,1,2.69,1.69,2.75C613.43,937.38,611.37,931.79,613,927.84Z" transform="translate(-79.78 -1)"/><path d="M119.8,871.62c4.19,1.34,8.81,3.52,13.65,4.24,14.26,2.13,24.85-1.68,25.76-18.41.27-5.1,1.88-9.16,6.85-11.06,4.63-1.76,8.41,0,11.49,3.59,6.56,7.71,13.39,5.47,19.06-.55,3.7-3.93,7.11-3.62,11.12-2.08s6.21,4.73,6.88,9.06c3,19.28,13.19,24.56,32,17.9,8.55-3,20.45-8.14,16.88,10.28,0,.16-.17.42-.11.46,25.6,22.05-4.85,21.63-12.37,29.71-7.84,8.42-4,41.38,7.64,54,4.27,4.63,9,8.85,13.52,13.25,3.06,3,4.74,6.57,3.51,10.79-1.16,4-4.5,5.72-8.37,5.85-3.54.11-3.78.8-2.71,4.28,1.29,4.18.51,9-3.7,11.58a14.47,14.47,0,0,1-15.58.37c-9.22-5.14-18.24-11-28.07-14.56-9.07-3.31-17.28-.51-21.33,9.78-3.32,8.47-10.72,12.6-15.71,4-13.34-23.07-27.81-14.74-43.11-3.79-7.39,5.29-16.87,13.31-23.39,4.68-5.26-6.94-10.42-14.6-15.12-22-4.93-7.8,6.44-13.25,11.77-18.3,15.18-14.42,17.92-32.26,16.38-51.59-.71-8.8-7.62-11.69-14.81-14.07-4.88-1.62-10.14-3.16-10.81-9.48s3.23-9.34,8.65-11c3.87-1.16,1.83-3.55,1.16-5.51C108.32,875.32,112.45,872.74,119.8,871.62Zm-7.59,120.76c1.78.69,10.6-2.26,8.21,8.46-.62,2.79-4.49,5.61-1,8.34s6.24-.74,8.67-2.69c14-11.21,31.75-22.16,46.26-10.38,12.2,9.9,13.79,6.57,24.4-.47,17.09-11.34,33.63,1.12,48.76,10.58,2.56,1.6,4.75,4.67,8.2,1.43,3.26-3.07.53-5.45-.85-7.89-2-3.61-3.16-8.15,1.94-8.59,17.43-1.51,3.62-7,1.45-10.54-1.8-2.92-4.51-5.28-6.77-7.92-19.09-22.33-15.33-60.06,7-71.53,2.19-1.12,4-3,5.94-4.59-2.25-1.2-4.4-2.72-6.78-3.55-4.42-1.55-5.79-4.06-3.65-8.38a45.46,45.46,0,0,0,1.77-4.78c-1.84.34-3.81.36-5.5,1.07-24,10.1-39.14,2-43.48-23.42-.16-.94-1.19-2.53-1.66-2.47a8.45,8.45,0,0,0-4.4,1.61c-9.64,8.39-18.93,8.05-28.17-.64a10.42,10.42,0,0,0-4.21-2c-.24-.07-1.35,1.65-1.48,2.63-3.59,25.87-18.39,34.15-43.43,24.31a27.26,27.26,0,0,0-5.15-1c.52,1.45.68,3.21,1.62,4.3,5.6,6.51,2.32,9.12-4.3,10.82-2.29.59-4.33,2.16-6.48,3.28a62.07,62.07,0,0,0,5.86,3.11C126.19,906,135,911.69,135.31,926c.6,25.53-6.86,47-27.51,63a17.94,17.94,0,0,0-2.15,2.36Z" transform="translate(-79.78 -1)"/><path d="M703.71,724.54c0,21.2.21,43.89-.13,66.57-.1,6.53-6.25,7.09-11.05,8q-71,13.56-142,26.91c-9.54,1.81-14.73-1.33-13.72-11.93a103.34,103.34,0,0,0,.15-14c-.32-8.2-1.92-16.44,9.3-19.7,4.68-1.37,5.82-6.6,4.39-11.46-1.25-4.25-4.53-5.94-8.76-6-4.44-.1-4.36-3-5.33-6.55-7.45-27.08,13-38.66,28.7-53,12.74-11.7,25.1-23.84,38.13-35.21,15.12-13.21,31-3.55,45.86.62,12.72,3.58,24.53,10.63,36.47,16.68C701,693.21,709.73,704.79,703.71,724.54ZM544.63,804.83c4,3.33-5.22,15.16,4.68,13.5,46.86-7.87,93.39-17.68,140-26.78,3.91-.76,5.6-2.36,5.67-7,.25-17.86.16-35.83,2.2-53.53,2.07-18-2-24.19-21-18.21-17.12,5.38-35.2,7.67-52.83,11.45-8,1.72-16.63.32-19.49,12.91-1.81,8-14.76,11.07-20,4.67-9.25-11.37-19.57-6.54-29.78-6.19-2.9.1-9.19-2.5-8.59,3.06.69,6.36-6.39,14.89,5.18,19.25,10,3.79,12,22.59,2.32,26.93C542.83,789.47,545.5,796.79,544.63,804.83Zm70.94-135a7.43,7.43,0,0,0-3.48,1.5c-15.24,13.81-30.34,27.75-45.49,41.66l-15.46,14.19c7.62-.39,15.27-1.3,22.86-1,3.47.15,9.51-5.39,10.52,2.8.54,4.4.65,8.37,6.35,7.78s9.17-3.74,8-9.69c-.92-4.49.37-6.37,4.69-7.22q42.84-8.46,85.63-17.14a32.87,32.87,0,0,0,4-1.35c-1-1.24-1.84-2.84-3.13-3.68C667.83,683.44,644.62,671.63,615.57,669.88Z" transform="translate(-79.78 -1)"/><path d="M841.34,403.87c-24.25,0-48.6,1.29-72.73-.44-16.88-1.21-11.67-15.7-10.41-25.87,4.15-33.5,10.79-66.65,16-99.91,1.86-11.93-1.78-27.21-1.56-41,.28-17.13,14.09-12.7,23.45-13.37,14-1,28.18-.44,42.27-.13,4.88.1,11.3.45,12.68,5.8,1.93,7.48,1.78,16.11,3.17,23.1,2.24,11.32-3.89,20.73-2,31.14q8.58,47.88,16.93,95.81C872.17,396.49,863.32,404.59,841.34,403.87ZM804.19,278.75c-5.36,3.72-19.12-8.53-22,5.25-7.11,34.46-12,69.39-17.6,104.16-.91,5.63,3.45,7.44,7.81,7.48,26.16.25,52.32.47,78.47.1,8.28-.11,12-4.39,10.25-13.83-5.12-28-8.79-56.25-14.27-84.16-1.36-6.93,3.18-18.74-8.6-20.21C827.9,276.25,817.13,278.15,804.19,278.75Zm32.64-28.88,10.92-2.29c-3.9-4.87.71-15.57-6.72-16.13a359.55,359.55,0,0,0-57,.19c-6.86.59-2.26,11.35-6.24,16.23,2,.67,4,1.9,6.07,1.92C801.69,249.94,819.54,249.87,836.83,249.87Zm-7.9,20.25c7.75-.48,15.53,1.88,18.06-5.59,1.85-5.49-4.39-7.14-8.45-7.24-16-.42-32.14-.7-48.16.15-4,.21-11.57,1.31-11.2,7.5.38,6.48,7.29,5,11.73,5.07C804.15,270.32,817.41,270.12,828.93,270.12Z" transform="translate(-79.78 -1)"/><path d="M622,165.78c2.89-9.13-1.51-15.23-11.91-20.63C597.9,138.81,594,125.91,593,112.59c-.27-3.65,1.87-4.08,4.92-2.79a52.32,52.32,0,0,1,19.72,14.81,86.5,86.5,0,0,1,5,7.23c.2-.52.64-1.08.57-1.57-.71-4.65,1.53-10.08-4.39-13.27-15.15-8.16-24-20.54-24.87-38.16-.21-4.54,1.74-5.83,5.23-3.35,6.58,4.67,13,9.63,19.12,14.87,2,1.7,2.88,4.66,4.27,7,.23-.69.8-1.47.65-2-1.07-4.15,2.49-9.48-3.36-12.42C602.06,74,595.24,58.75,595.07,39.75a4.64,4.64,0,0,1,1.32-3.32c.54-.44,2.44,0,3.09.66,6.76,6.83,13.4,13.77,20,20.72,1.26,1.33,2.34,2.83,3.5,4.25-.06-2,.46-4.15-.27-5.8-7-15.83-11.11-31.7-1.81-48.09a37.23,37.23,0,0,1,3.78-4.7c1.59,1.32,3.64,2.36,4.7,4,8.57,13.5,6.74,27.28,1.33,41.4-1.32,3.43-.48,7.68-.63,11.56,1.49-2.35,2.65-5,4.55-7,5.55-5.7,11.35-11.17,17.19-16.58.79-.74,2.92-1.21,3.5-.72A5.61,5.61,0,0,1,657,40c.2,18.07-6.88,32.13-23,41.06C627,85,631,91.48,630.05,96.8c.49-.25,1.26-.38,1.42-.76,3.16-7.64,9.29-12.45,16-16.55,3.42-2.08,7.22-3.53,10.85-5.27-.33,4.32-.16,8.75-1.08,13-2.84,13-8.64,24.06-21.84,29.45-7.07,2.89-5.32,9.06-5.59,14.5,0,.38.35.79.54,1.19a21.79,21.79,0,0,0,1.56-1.63c2.94-3.78,5.36-8.15,8.89-11.26,4.89-4.3,11.31-13.49,16.1-9.36,5.22,4.49,1.38,14.7-2,21.74-3.89,8.14-10.51,13.41-18.65,17.8-11.57,6.24-2.86,17.83-5,26.74-1,4.07,3.6,11.12-4,11.37-8.38.29-4.46-7.43-5.15-11.88C621.67,173.23,622,170.51,622,165.78ZM600.62,85.39c2.48,10.75,8.55,17.81,17.12,23,.12.07,1.37-1,1.29-1.45-1.94-10.15-7-18.1-16.48-22.78C602.19,84,601.24,85,600.62,85.39Zm20.21,58.26c-2.94-11.1-9.64-18.81-18.48-24.87-.28-.19-1.59.43-1.57.57,1.27,9.66,6.39,16.75,14.56,21.85a37,37,0,0,1,3.3,3,6.54,6.54,0,0,0,1.74.7C620.58,144.33,620.78,143.77,620.83,143.65Zm30.26-57.87a16.94,16.94,0,0,0-1.2-1.53c-8.63,5.57-14.06,13.36-15.78,23.55-.1.6,1.11,2,1.15,2C644.57,104.7,649.35,96.56,651.09,85.78ZM602.5,46.73c-.18.51-.61,1.13-.55,1.68,1.29,11.64,7.48,20.27,16.72,27,.14.1,1.14-.53,1.11-.7C617.73,63.25,611.55,54.3,602.5,46.73ZM652,119.45c-.47-.15-1.65-.84-1.93-.57-6.94,6.47-13.64,13.16-16.87,22.41-.52,1.51-.42,3.54,2,1.86C643.26,137.47,650.76,131.26,652,119.45Zm-1.65-69.37c-.43-.51-.93-1.12-1.43-1.73-3.86,4-8.31,7.65-11.37,12.21-2.38,3.53-3,8.23-4.44,12.41.64,0,1.49.36,1.87.07C642.54,67.22,648,60,650.33,50.08ZM630.15,26.25c-1.58-4.5-3.06-8.76-4.55-13-1.48,5.09-4,10.17-4.13,15.29-.1,4.75,2.42,9.55,3.79,14.32Z" transform="translate(-79.78 -1)"/><path d="M327.92,342.4c8.27-23.88,7.43-52.8,34.24-71.39,13.14-9.12,16.47-30.28,36.84-33.75,7-1.2,13.67-3.44,20.22-.24,11.1,5.43,22.35,9.87,34.79,11,4.29.41,7.58,2.92,9.56,7.1,4.8,10.16,11.66,18.17,22.15,23.25,7.47,3.61,10.7,10.68,12,19A80.68,80.68,0,0,0,503.24,317c15,34.55-3.26,61.24-38.83,72.63-28.8,9.24-55.49,5.33-83.34,4.44C359.88,393.37,327.77,363.54,327.92,342.4Zm105.17,48.14c3.65-1.47,11-6,19-7.34,15-2.63,29.08-7.07,39-18.8,7.51-8.88,15.05-19.57,10.06-32-4-10-9.1-19.41-11.15-30.11-1.39-7.22-2.64-15.14-10.45-18.17-11.31-4.4-17.43-13.47-22.79-23.27-2.14-3.91-4.9-5.29-8.94-5.82-8.87-1.18-17.73-2.37-25.56-7.39-14.08-9-32-2.06-36.18,6.36-12.11,24.17-42.84,34.65-44.41,66.8-.79,16.26-10.71,33.61,5.15,45.76C370.55,384.75,399.91,388.46,433.09,390.54Z" transform="translate(-79.78 -1)"/><path d="M322.79,919.29c.26-30.14,15.95-54.38,34.69-59.95,25.71-7.64,52.46,3.66,70.42,30.16,15.37,22.68,20.35,49.9,32,74.15,2.57,5.33,8.14,11.75,15.72,10.45,10.77-1.84,18.38,1.9,20.93,11.83,2.74,10.64-2.28,19-12.94,22.62-2.88,1-4.44,2.09-5.55,4.74-3.52,8.41-10.57,9.48-17.78,6.7-8-3.08-15.1-8.59-11.54-18.47,4.14-11.51-8.62-10.83-11-17.34-10.25,6.41-15-5.06-22.64-7.18-21.17-5.87-42.63-11.3-62.91-19.55C333.33,949.78,323.06,934,322.79,919.29Zm7.3-11c.87,18.9,8.7,31.81,23.4,40.82,19.32,11.83,45.5,7.23,62.1,20.54,19.65,15.77,23.43-7.38,35.2-8.73.06,0,.3-2.12-.2-2.73C436,940.28,436,916,423.19,896.87,408.26,874.46,386,862,361.47,868.06,340,873.37,334.23,891.09,330.09,908.32Zm125.8,96.93c.49,5.2,3.47,6.72,7.27,6.73,5.18,0,9.76-1.23,9.94-7.76.1-3.58.33-7.58,5.32-5.57,3.26,1.31,5.86,1.72,8-.94s4.69-5.38,2.69-9.35c-1.76-3.49-4.45-8.36-8-7-11,4.36-17.1-3-24.47-8.16-2.77-1.92-6-3.89-9.13.09-2.92,3.71-1.55,7.06.87,9.91C454.06,989.86,466.09,994.15,455.89,1005.25Z" transform="translate(-79.78 -1)"/><path d="M443,32.39c25.09,0,49.91-.23,74.72.1,12.61.17,5.83,10.77,8,16.53.15.39-.33,1-.24,1.44,6.79,35.73-18,29.64-38.6,29.22-19.58-.39-39.17-.74-58.75-.81-5.5,0-6.58-3.55-6.61-7.42-.08-10.94-1.29-22.25,1-32.74C425.19,26.62,436.64,36.48,443,32.39Zm74.21,23.88c-.12-15.14-.12-15.31-14.56-15.35-16.91,0-33.86,1.12-50.7.12S423.43,42,430,63.21c.92,3-2.65,7.95,4.56,7.9,17-.11,34.37,2.69,50.79-.22C496.14,69,517.91,83.84,517.21,56.27Z" transform="translate(-79.78 -1)"/><path d="M437,131.1c-23.23,0-46.47-.13-69.7.09-5.13.05-8.82-1.17-8.86-6.7q-.13-17.88.59-35.76c.16-3.74,2.6-6.7,6.82-6.62,27.55.52,55.22-.26,82.6,2.24,19.08,1.75,7.18,18.75,9.48,28.43C462.19,130.74,449.43,130.5,437,131.1Zm-3.69-8.23c16.85,2.93,19-6.37,16.41-19.42-.8-4,2.61-11.31-3.53-11.68-21.64-1.32-43.44-.3-65-2C364.61,88.4,364,96.57,366.58,108.6c1,4.79-3.72,13.37,3.53,13.82C391.11,123.7,412.23,122.87,433.31,122.87Z" transform="translate(-79.78 -1)"/><path d="M363.35,181.94c-32.92-.66-32.39-.68-33.6-29.31-.59-14.06,1.92-20.52,18.49-19.11,23.38,2,47,.57,70.57.85,5.77.07,10.61,1.34,10.1,9.36-.65,10.08-.06,20.24-.24,30.36-.12,7.36-5.85,7.73-11,7.78C399.55,182.06,381.45,181.94,363.35,181.94Zm25.07-8c20.86,2.65,37.81,1.75,32.67-27.31-.7-3.94-1.93-4.73-5.15-4.54a496.63,496.63,0,0,1-73.59-.66c-1.45-.12-5.17-2-5,2.47.27,7.44,1,14.91.6,22.33-.3,6.08.92,8.25,7.71,7.92C359.88,173.48,374.16,174,388.42,174Z" transform="translate(-79.78 -1)"/><path d="M494.69,181.05c-17.76,0-35.82-.19-53.87.11-6.25.11-7.72-2.93-7.63-8.21.59-36.29.57-36.32,37.55-37.56,13.91-.47,27.82-.7,41.73-1.17,17.07-.58,11.37,12.31,12.87,21.22C529.65,181,516.58,186.26,494.69,181.05Zm6.94-7.21c13.22,3.93,18-2.74,15.2-16.1-1.12-5.44,5.93-15.25-7.77-14.92-20.49.5-41,.34-61.49,0-5.34-.08-7.05,1.46-6.67,6.72.5,7,.4,14,.46,21.07,0,2.55.9,3.29,3.58,3.27C463.39,173.77,481.85,173.84,501.63,173.84Z" transform="translate(-79.78 -1)"/><path d="M493.28,130a37.27,37.27,0,0,1-6,0c-7.83-1.3-19.37,4.38-22.93-2.84-6-12.17-2.11-26.59-.77-40,.12-1.24,4.62-3.12,6.91-2.9,17.93,1.74,38.68-7.11,52.82,3.77,6.7,5.16,2.4,25.39,1.82,38.74-.15,3.62-6,3.58-9.92,3.54-7.32-.07-14.63,0-22,0Zm5.19-9.57,0,.77c6-.4,16.71.52,17.25-1.42,2.31-8.21,2.31-17.35,1.28-25.93-.17-1.38-9.88-2.06-15.2-2.25-7.79-.26-15.68-.48-23.37.51-18.81,2.44-5.26,17-8.3,25.37-2.16,6,6.16,4.29,10,4.34C486.29,121.88,492.39,120.92,498.47,120.41Z" transform="translate(-79.78 -1)"/><path d="M812.12,71c0,5.48.07,11,0,16.46-.05,2.3-.46,4.6-.71,6.9-.77-2.4-2.15-4.78-2.21-7.2-.35-13.06-.41-26.13-.44-39.2,0-1.25.86-2.5,1.32-3.75.62,1.45,1.73,2.88,1.77,4.35.18,7.47.08,15,.08,22.44Z" transform="translate(-79.78 -1)"/><path d="M869.36,77.19c-.1,4.58-28.43,37.08-32.18,37.41a4.47,4.47,0,0,1-1.3-.31,8.94,8.94,0,0,1,1-2.13q14.55-17.31,29.21-34.55a5.92,5.92,0,0,1,2.49-1.36C868.77,76.19,869.27,77.07,869.36,77.19Z" transform="translate(-79.78 -1)"/><path d="M786.26,114.84l-.54,1.24a7.88,7.88,0,0,1-1.59-1.1q-15.58-17.49-31.08-35.07c-.65-.74-.71-2-1-3,1,.18,2.45,0,3,.57,10.17,11.8,20.23,23.69,30.29,35.58A10.22,10.22,0,0,1,786.26,114.84Z" transform="translate(-79.78 -1)"/><path d="M758.22,132.37c4.17.85,8.1,1.44,11.89,2.48,5,1.37,9.92,3.09,14.87,4.67-5.41-.64-10.86-1.1-16.24-2a89.59,89.59,0,0,1-10.5-2.64,15.12,15.12,0,0,1-3-1.69Z" transform="translate(-79.78 -1)"/><path d="M864.23,132.39l4.51,1.05c-1,.7-2,1.42-3.1,2.1a2.52,2.52,0,0,1-.93.33l-22.73,4c0-.27-.08-.76,0-.78C849.65,136.75,857.33,134.45,864.23,132.39Z" transform="translate(-79.78 -1)"/><path d="M185.72,536.86c8.53,9,17.25,18.14,25.94,27.34.21.22,0,.86-.06,1.3-1-.3-2.43-.28-3.12-1-8.39-8.16-16.69-16.42-25-24.68a2.17,2.17,0,0,1-.66-1.69C182.94,537.81,183.86,537.67,185.72,536.86Z" transform="translate(-79.78 -1)"/><path d="M249.36,596.88c-2,1.13-2.91,1.89-3.08,1.74-6.05-5.25-12-10.58-18-15.9.52-.46,1.39-1.38,1.49-1.3C236.09,586.33,242.35,591.31,249.36,596.88Z" transform="translate(-79.78 -1)"/><path d="M204.25,522.49c-.73-2-1.33-3-1.12-3.23,3.73-4.31,7.56-8.53,11.37-12.76.37.6,1.21,1.57,1.05,1.77C212.09,512.76,208.52,517.16,204.25,522.49Z" transform="translate(-79.78 -1)"/><path d="M227.41,493.92c-1.11-1.85-2.33-3-2.15-3.82a3.56,3.56,0,0,1,2.68-2c.61-.06,1.95,1.52,1.92,2.33S228.65,492.26,227.41,493.92Z" transform="translate(-79.78 -1)"/><path d="M117.37,509.12c-.75-1.08-1.63-2-1.49-2.18a64.34,64.34,0,0,1,4.28-5.21,6.66,6.66,0,0,1,1.21.72C120.17,504.54,118.91,506.59,117.37,509.12Z" transform="translate(-79.78 -1)"/><path d="M166.05,463.78l-5.19,4.34c-.28-.42-.88-1.13-.8-1.21,1.34-1.43,2.74-2.81,4.21-4.11C164.39,462.7,165.09,463.24,166.05,463.78Z" transform="translate(-79.78 -1)"/><path d="M123.79,602l-4.55-5.31c10.22.08,11.33-11.94,19.47-14.6.26-.08,1.22,1.11,1.19,1.14C134.7,589.33,129.44,595.41,123.79,602Z" transform="translate(-79.78 -1)"/><path d="M830.35,557c0,9.25.07,18.5-.09,27.75,0,1.21-1.19,2.4-1.83,3.6-.7-1.2-2-2.39-2-3.6q-.45-27.27-.54-54.55c0-.55,1-1.1,1.61-1.65,1.19,1.51,3.34,3,3.4,4.55.35,8,.17,15.93.17,23.9Z" transform="translate(-79.78 -1)"/><path d="M792.75,568.12c.76-11.91,1.39-23.83,2.41-35.72.15-1.78,2.1-3.41,3.21-5.11.56,1.8,1.65,3.62,1.58,5.4-.54,15.69-1.19,31.37-2.07,47-.17,3.08-1.47,6.09-2.25,9.14-.74-2.92-1.85-5.81-2.13-8.77-.37-4-.09-8-.09-12Z" transform="translate(-79.78 -1)"/><path d="M852.2,547.59c0,9.43.09,18.86-.08,28.29,0,1.94-1.07,3.87-1.64,5.8-.71-1.69-1.93-3.35-2-5.08-1-15.19-1.82-30.39-2.62-45.59-.12-2.37.13-5.16,3.31-4.86.82.07,1.84,3.22,1.92,5,.25,5.47.1,11,.1,16.44Z" transform="translate(-79.78 -1)"/><path d="M777,551.29c-.57,7.77-1.41,19.78-2.38,31.78-.11,1.27-1.07,2.46-1.63,3.68-.54-1.29-1.58-2.58-1.57-3.87.13-14.88-1.69-30.24,1.48-44.48,1.82-8.17,3.8-.48,4.07,2.65C777.13,543,777,545,777,551.29Z" transform="translate(-79.78 -1)"/><path d="M772.7,502l3.17-8.42c1,2.61,2.75,5.22,2.75,7.83,0,2-2.25,3.9-3.5,5.85Z" transform="translate(-79.78 -1)"/><path d="M781.91,476.81c1.08,1.34,2.28,2.28,2.12,2.75a13.7,13.7,0,0,1-2.21,3.26c-.86-.91-2.19-1.73-2.42-2.78C779.25,479.35,780.68,478.31,781.91,476.81Z" transform="translate(-79.78 -1)"/><path d="M662.61,494.11c-11.3,8.38-22.29,16.53-33.33,24.62-.14.11-1.34-.72-1.29-.94a3.85,3.85,0,0,1,1.09-2Q643.56,504,658.15,492.4a4.18,4.18,0,0,1,2.54-.59C661.07,491.82,661.42,492.64,662.61,494.11Z" transform="translate(-79.78 -1)"/><path d="M605.56,484.72c-8.54,4.81-15,13-25.3,15.17-.31.06-.74-.45-1.11-.7,1.43-1.66,2.57-3.83,4.36-4.89,7-4.11,14.15-7.86,21.25-11.75Z" transform="translate(-79.78 -1)"/><path d="M669.23,533.23l-2.42-2.9c2.21-1.37,4.41-2.77,6.69-4a7.17,7.17,0,0,1,1.28,1.75C673.17,529.69,671.44,531.21,669.23,533.23Z" transform="translate(-79.78 -1)"/><path d="M658.44,571l-1.35-.5c.44-.85.65-2,1.34-2.53q13.46-10.08,27.05-20a2.41,2.41,0,0,1,2-.06,1.93,1.93,0,0,1,.19,1.7C678,556.8,668.24,563.88,658.44,571Z" transform="translate(-79.78 -1)"/><path d="M178.82,306.32c0,18.21-14.26,37.28-28.35,37.65-1.42,0-2.86-.93-4.28-1.43a16.35,16.35,0,0,1,3-2.9c25.62-14.39,29.28-30.84,12-54.08-.63-.85-.45-2.3-.65-3.47a9.23,9.23,0,0,1,2.86.7C172.08,288.31,178.18,295.54,178.82,306.32Z" transform="translate(-79.78 -1)"/><path d="M270.09,330.87c-1.88,18.62-8,33.72-29.65,36-1.62.17-3.34-.64-5-1,1.23-1.36,2.23-3.58,3.72-4,16.72-4.38,22.51-17,25-32.31.47-2.91,1.79-5.68,2.71-8.51C271,323.33,269.24,327.47,270.09,330.87Z" transform="translate(-79.78 -1)"/><path d="M214.48,296.83c-.22,2.44,0,4.52-.62,6.37C211.68,310.27,210,317.74,202,321c1.45-5.17,3-10.31,4.33-15.51,3.66-14.72-2.15-27.14-9.63-39.16-.79-1.28-.93-3-1.38-4.45,1.42.58,3.17.82,4.21,1.8C209.14,272.8,213.58,284.24,214.48,296.83Z" transform="translate(-79.78 -1)"/><path d="M236.91,306.87c-3,19.19-11.4,32.17-30.16,36.28-1.66.36-3.73-1.08-5.61-1.69,1.19-1.17,2.17-2.81,3.6-3.42,15.33-6.62,25.42-17.1,26.47-34.67.09-1.49,1.64-2.89,2.52-4.34Z" transform="translate(-79.78 -1)"/><path d="M196.65,372.64c-3.86-1.43-9.56-2.58-14.18-5.47-6.31-3.93-13.14-8.15-13.36-17.14,4.55,3.19,9.19,6.26,13.62,9.61,5.38,4.07,11.58,5.19,18,6.2,3.34.52,9.77-2.4,9.44,1.56C209.81,372,202.91,371.61,196.65,372.64Z" transform="translate(-79.78 -1)"/><path d="M195.41,298.68,191.48,307c-.81-3-2.08-5.94-2.35-9-1-11.46-7.5-19.88-14.8-28-1.13-1.26-1.71-3-2.54-4.56,1.85.25,4,0,5.49.84C188.69,273.2,193.79,283.88,195.41,298.68Z" transform="translate(-79.78 -1)"/><path d="M248.78,330.63c-2.1,13.14-9.6,20.34-20.78,24.12-1,.35-2.58-.83-3.89-1.3.84-1.33,1.36-3.28,2.56-3.89,8.16-4.12,13.38-10.57,16.5-19,.44-1.22,2.29-1.92,3.48-2.86Z" transform="translate(-79.78 -1)"/><path d="M224,266.11c-1.07,2.91-2.22,6.06-3.38,9.2-.55-2.82-1-5.67-1.67-8.47-.95-4-1.88-8-3.13-11.9s-7-9.26-2.73-11.48c3.5-1.83,6,5.59,7.71,9.6S222.9,261.3,224,266.11Z" transform="translate(-79.78 -1)"/><path d="M253.58,282.61c-1.92,7.2-1.28,14.53-8.23,18.52-.08.05-1.27-1.15-1.15-1.54,2.26-7.51,4.65-15,7-22.46Z" transform="translate(-79.78 -1)"/><path d="M641.27,326.5l-10.78-1.87c3.51-.91,7-1.82,10.53-2.71a4.9,4.9,0,0,1,1.48-.13c6.75.34,13.5-4.7,20.25,0C656.69,327.93,648.71,324.5,641.27,326.5Z" transform="translate(-79.78 -1)"/><path d="M585.4,320.13l3.08,3.23c-.92.83-1.91,2.39-2.75,2.32-1.21-.11-2.31-1.41-3.46-2.19Z" transform="translate(-79.78 -1)"/><path d="M643.8,292.29c-3.44-1-8,1.51-10.63-3,1-.5,2.31-1.67,3-1.38,7.16,2.82,14.79-4.55,21.74,1.06C654,293,648.75,291.55,643.8,292.29Z" transform="translate(-79.78 -1)"/><path d="M592.64,292.8c-1.21-.9-2.08-1.55-3-2.19,1-1.1,2-2.87,3.16-3.07.89-.15,2.12,1.72,3.2,2.69Z" transform="translate(-79.78 -1)"/><path d="M650.75,350.42c2,1.19,5,2.21,5,3-.3,4-4,2.28-6.18,2.65-1.58.27-3.42-.89-5.14-1.42Z" transform="translate(-79.78 -1)"/><path d="M587.47,358,585,355.06c1-.69,2-1.9,3-1.94s1.9,1.21,2.85,1.89Z" transform="translate(-79.78 -1)"/><path d="M837.31,976.71l-5.45-2.18c1.39-.78,2.71-2,4.19-2.26,11.29-1.74,22.3-4.3,32.51-9.66.57-.3,1.55.19,2.34.32-1.55,2-2.74,5.18-4.73,5.81C856.32,971.86,846.25,974.31,837.31,976.71Z" transform="translate(-79.78 -1)"/><path d="M823.68,994.83l-5.59-2.6a33.62,33.62,0,0,1,5.45-2.24c6.73-1.5,13.5-2.88,20.3-4.08a40.06,40.06,0,0,1,6.76-.1c-1.93,1.34-3.67,3.31-5.8,3.92C838,991.66,831.08,993.08,823.68,994.83Z" transform="translate(-79.78 -1)"/><path d="M800.22,991.48a47.57,47.57,0,0,1-23.74-6.57c-1.19-.69-1.62-2.69-2.4-4.08,1.67,0,3.49-.48,5,0,6.87,2.28,13.67,4.8,20.46,7.3a23.44,23.44,0,0,1,3.27,1.83Z" transform="translate(-79.78 -1)"/><path d="M770.48,968.7c-2.24,1.17-3.59,2.37-4.16,2.08a37.56,37.56,0,0,1-5.21-3.84c.5-.62,1.23-1.86,1.48-1.77C764.63,965.91,766.58,966.9,770.48,968.7Z" transform="translate(-79.78 -1)"/><path d="M802.74,917.68c4.56,2.71,10.12-3.67,14.82,1.4-4,1.24-7.9,3.38-11.9,3.51-5.71.17-11.47-1.13-17.21-1.81C792.42,916.49,797.72,918.75,802.74,917.68Z" transform="translate(-79.78 -1)"/><path d="M803.05,912.84c-2.69-1.49-6.91,1.24-7.2-3.61,0-.68,2.56-2.39,3.37-2.09a70.06,70.06,0,0,1,8.35,4.29Z" transform="translate(-79.78 -1)"/><path d="M882.37,881.52c-2.94,1.13-4.53,2.29-6,2.12a4.14,4.14,0,0,1-2.79-3c0-1,1.57-2.61,2.77-3C877.11,877.36,878.45,878.87,882.37,881.52Z" transform="translate(-79.78 -1)"/><path d="M217.21,106.86l-6-1.66c1.42-.87,2.74-2.09,4.28-2.55,8.53-2.56,17.1-5,25.69-7.32.89-.25,2,.36,3.05.57-.59,1-1,2.68-1.8,3C233.81,101.73,225.16,104.37,217.21,106.86Z" transform="translate(-79.78 -1)"/><path d="M251.49,133.86l-5.59-2.09a22.31,22.31,0,0,1,4.22-2.67c7.67-2.78,15.38-5.48,23.15-8,1.63-.52,3.57-.12,5.36-.14-1.07,1.08-1.95,2.61-3.25,3.16C267.27,127.58,259.06,130.81,251.49,133.86Z" transform="translate(-79.78 -1)"/><path d="M196.65,128.53l-5.49-2.89c8.3-2.12,16.59-4.27,24.92-6.29.7-.17,1.62.59,2.44.92C212.52,125.35,205.37,127.38,196.65,128.53Z" transform="translate(-79.78 -1)"/><path d="M252.37,113.24l-2.23-1.55a13.34,13.34,0,0,1,2.77-2.42q11.13-5.2,22.38-10.18a10.84,10.84,0,0,1,2.95-.4c-.24,1.1-.1,2.58-.77,3.22C270.52,108.59,261.29,110.25,252.37,113.24Z" transform="translate(-79.78 -1)"/><path d="M225.18,137.51l3.06,1.05a12.43,12.43,0,0,1-1.57,1.59,27.74,27.74,0,0,1-4.19,2.63c-6.46,3-13,5.82-19.48,8.72a15.55,15.55,0,0,1-.74-2C210.05,145.33,217.88,141.29,225.18,137.51Z" transform="translate(-79.78 -1)"/><path d="M237.72,128.46,233,125.27c7.28-2,14.55-4.13,21.86-6.07.57-.15,1.4.68,2.12,1.06Z" transform="translate(-79.78 -1)"/><path d="M262.41,96.42l-4.2-3.59a65.9,65.9,0,0,1,7.58-2.61c.85-.19,2,1,3,1.48Z" transform="translate(-79.78 -1)"/><path d="M188.06,88.8l-5-1.66c1.18-1.23,2.14-3.1,3.58-3.61Q220,71.71,253.56,60.27c1-.34,2.31.37,3.47.59-.75,1.16-1.23,2.79-2.3,3.42C233.73,76.56,209.67,80.18,188.06,88.8Z" transform="translate(-79.78 -1)"/><path d="M205,61.82l-4.49-2.48c1.05-.7,2-1.72,3.15-2.07Q224.8,50.9,246,44.75c1.17-.33,2.59.23,3.9.38-.67,1.35-1.06,3.61-2,3.92C233.5,53.49,219.06,57.68,205,61.82Z" transform="translate(-79.78 -1)"/><path d="M199.47,68l2.27,1.67c-1.05,1.39-1.81,3.6-3.17,4.06C188.84,77,179,80,169.17,82.92c-1.1.32-2.55-.53-3.83-.83.66-1.15,1.07-3,2-3.34C178,75,188.64,71.56,199.47,68Z" transform="translate(-79.78 -1)"/><path d="M170.55,59.17l-2.66-1.46c.74-1,1.3-2.51,2.22-2.75q17.13-4.62,34.37-8.78c1.28-.31,2.91.83,4.38,1.3a23.44,23.44,0,0,1-3.68,1.77C193.79,52.56,182.39,55.79,170.55,59.17Z" transform="translate(-79.78 -1)"/><path d="M97,139.1c0-7.61,1.45-14,8.81-13.75,9.72.39,13.77,7.59,14,16.75.19,6.67-3.06,10.92-10.07,10.83C99.9,152.82,97.7,145.86,97,139.1Zm18.09,2.12c-.37-4.53-1.85-9.13-8.09-9.87-3.78-.45-5.07,2.48-4.84,5.42.42,5.37,1.48,11.16,8.06,12C114.29,149.29,114.77,145.35,115.05,141.22Z" transform="translate(-79.78 -1)"/><path d="M175.36,150c-.14,8.13-4.08,12.07-11.26,11.6-9.84-.65-11.59-8.33-11.83-16.09-.19-6.08,2.56-11,9.68-10.53C171.45,135.61,174.39,142.44,175.36,150Zm-11.91-9.33c-5.48.11-6.14,3.76-6,7,.25,5,2.8,9.33,8.19,9.61,3.58.18,5.29-3.29,4.93-6.78C170.1,145.59,168.38,141.39,163.45,140.62Z" transform="translate(-79.78 -1)"/><path d="M144.26,86.54c-.18,7.68-3.87,12-10.37,11.61-9.34-.51-12.78-7.26-12.89-15.8-.08-6,1.91-11.62,8.91-11.34C139.8,71.41,143.61,78.27,144.26,86.54Zm-5.83-5.49c.23,1.52-.3-3.61-7-4.06-3.86-.26-5.56,2.32-5.33,5.65.36,5.18,2.23,10.1,8,11.1C137.93,94.41,139.51,91.38,138.43,81.05Z" transform="translate(-79.78 -1)"/><path d="M433,492.52c-24.15,1.24-43.44,1.1-62.27-4.42-1.4-.41-2.56-1.65-3.83-2.5,1.56-.43,3.18-1.39,4.66-1.2,27.4,3.62,54.77,4.6,82.14-.4,1.52-.28,3.26.59,4.89.93-1.35,1.07-2.57,2.78-4.09,3.12C445.77,490,437,491.7,433,492.52Z" transform="translate(-79.78 -1)"/><path d="M443.47,505.51l-7-1.92c6.28-1.7,12.53-3.57,18.88-5,1.31-.28,3,1.23,4.54,1.91Z" transform="translate(-79.78 -1)"/><path d="M377.36,498.23l-10,10.09c-.38-.72-1.25-1.87-1.07-2.08q4.27-4.75,8.86-9.24C375.3,496.86,376.42,497.69,377.36,498.23Z" transform="translate(-79.78 -1)"/><path d="M380.32,508.51l-2.1-1.78c1.85-1.24,3.66-2.55,5.59-3.63.3-.17,1.17.68,1.77,1.06Z" transform="translate(-79.78 -1)"/><path d="M381.86,558.36l-13.7-5.24c.93-.49,2-1.56,2.77-1.38,6.11,1.42,12.17,3.07,18.24,4.65Z" transform="translate(-79.78 -1)"/><path d="M450.07,557.78,447,556.19c5.26-2,10.51-4.09,15.8-6,.38-.14,1.1.7,1.67,1.08C461,556.22,455.36,556,450.07,557.78Z" transform="translate(-79.78 -1)"/><path d="M421.53,602.05c-12.71,1.38-23.57,1.57-34.2-1.65-1.3-.39-2.21-2.06-3.3-3.14a19,19,0,0,1,4.24-.58q15.8,1.37,31.56,3c1.15.12,2.19,1.17,3.29,1.79Z" transform="translate(-79.78 -1)"/><path d="M434.12,596.59c1,2,1.89,2.88,1.8,3.63-.13.95-1,1.8-1.58,2.69-.78-.67-2.16-1.31-2.2-2C432.09,599.87,433,598.81,434.12,596.59Z" transform="translate(-79.78 -1)"/><path d="M446.31,596.13c.75,1.24,1.65,2.07,1.55,2.75s-1.2,1.24-1.86,1.85c-.56-.69-1.56-1.39-1.56-2.09S445.43,597.24,446.31,596.13Z" transform="translate(-79.78 -1)"/><path d="M177.93,757.85l-16.76-2.45,15.44-3.47a2.75,2.75,0,0,1,.5,0c7.71-.61,17.45-4.5,22.17,2.41,3.31,4.84-3.91,10.76-9.2,14.07-9.72,6.09-19.9,9-30.67,2.49-.59-.36-.45-1.93-.65-2.93a22.28,22.28,0,0,1,3-.32c5.36.13,10.81,1,16.06.34,6.57-.86,11.62-5.08,15.84-10.13l-15.6-1.36Z" transform="translate(-79.78 -1)"/><path d="M121.6,728.94c4.4.2,7,2.81,7.17,7.12s-1.76,7.25-6.59,6.94-7.2-3.62-7.53-7.82S117.5,729.27,121.6,728.94Z" transform="translate(-79.78 -1)"/><path d="M260,727.72,257.78,726c5.4-4,10.8-7.9,16.24-11.8.05,0,1,.86,1,1.08C272.38,722,267.13,725.56,260,727.72Z" transform="translate(-79.78 -1)"/><path d="M173,730.34l-5.95-2.89c5.08-1.14,10.15-2.35,15.26-3.33.76-.15,2.52,1.14,2.5,1.17C182.45,730.66,176.94,727.9,173,730.34Z" transform="translate(-79.78 -1)"/><path d="M201.45,727.17l3.76,3.34a23.15,23.15,0,0,1-5.09,1.32c-1.17,0-2.39-.89-3.58-1.39Z" transform="translate(-79.78 -1)"/><path d="M221.05,741.91c-1.71-3.79-2.85-5.42-3-7.14-.09-.84,2.08-2.81,2.47-2.63a8,8,0,0,1,3.41,3.11C224.23,735.83,223.13,737.22,221.05,741.91Z" transform="translate(-79.78 -1)"/><path d="M415.88,813c-12.25-1.36-23.92-2.56-35.56-4.06-1.32-.17-2.43-2-3.64-3.07,1.58-.61,3.31-2,4.72-1.72,23,4.42,46.08,3.11,69.18,1.39a16.81,16.81,0,0,1,4.07.71c-1.23.58-2.41,1.5-3.7,1.69C439.17,809.72,427.37,811.36,415.88,813Z" transform="translate(-79.78 -1)"/><path d="M380.19,761.1c.86-2.78-2.58-9.81,3.24-10.32,3-.26,1,7.23.84,11.23-.46,9.2-.93,18.4-1.69,27.58-.14,1.69-1.64,3.25-2.52,4.88-.5-1.73-1.5-3.48-1.43-5.18C379,780.34,379.59,771.4,380.19,761.1Z" transform="translate(-79.78 -1)"/><path d="M444.89,752.49c-3.12,3.85,2.89,8.44-1.9,12-1-1.6-2.93-3.27-2.83-4.8.33-5.21,1.37-10.37,2.14-15.55C443.16,746.86,444,749.63,444.89,752.49Z" transform="translate(-79.78 -1)"/><path d="M335.23,763.19l10.7,6c-1,.85-2.32,2.63-2.86,2.42-3.63-1.45-7.08-3.33-10.59-5.07Z" transform="translate(-79.78 -1)"/><path d="M447.34,791.52,444.46,794c-.82-3.84-2-7.65-2.33-11.53-.16-1.63,1.3-3.41,2-5.11C445.17,781.84,446.18,786.36,447.34,791.52Z" transform="translate(-79.78 -1)"/><path d="M482.61,769.87,480.85,768c4-2.35,8-4.79,12.14-6.92.48-.25,1.86,1.25,2.83,1.94Z" transform="translate(-79.78 -1)"/><path d="M813.22,762.63c-19.65-.39-35.48-8.47-38.71,13.37-.35,2.39-4.25,2.26-5,0-2.84-8.23,3.35-14,6.54-20.51,2-4,5.66-4,9.52-2.93,18.32,4.85,36.72,3.83,55.2,1,2.47-.38,5.15.64,7.74,1-2.15,1.51-4.15,4-6.48,4.36C830.11,760.71,818.15,762,813.22,762.63Z" transform="translate(-79.78 -1)"/><path d="M823.49,772.27l-7.25-1.7c2.7-.86,5.34-2.14,8.1-2.49,9.15-1.18,18.34-2.12,27.54-2.89,1.26-.11,2.64,1.19,4,1.83-1.17.66-2.29,1.76-3.52,1.91C843.15,770.1,834,771.09,823.49,772.27Z" transform="translate(-79.78 -1)"/><path d="M834.25,788.39,829,787c7.34-2.34,14.65-4.81,22.07-6.91,1.3-.37,3,.8,4.58,1.26C849.7,787,841.91,787,834.25,788.39Z" transform="translate(-79.78 -1)"/><path d="M831.6,803.67l-5.51-1.95c6.25-1.67,12.48-3.39,18.76-4.92.63-.15,1.55.86,2.34,1.34C843.13,803.06,837.08,801.87,831.6,803.67Z" transform="translate(-79.78 -1)"/><path d="M780.64,797.55c-3.78-.91-7.44-.59-7.42-4.82,0-1.05,2.33-3.13,2.56-3,2.54,1.5,4.87,3.34,7.26,5.09Z" transform="translate(-79.78 -1)"/><path d="M219.8,952c5.53,4,6.57,9.63,7.9,15,.12.51-1.48,2.06-1.69,2-5.81-2.91-5.43-9.35-7.82-14.23C218,954.23,219.13,953.05,219.8,952Z" transform="translate(-79.78 -1)"/><path d="M189.73,945.92l-2.06,7.86c-4.15-1.91-2.91-5.8-3.15-9-.19-2.48-.78-5.87,2.86-6C188.05,938.7,189,943.43,189.73,945.92Z" transform="translate(-79.78 -1)"/><path d="M166.68,897.87c-4.84,3.91-8.49,6.92-12.28,9.75-.22.17-2.29-1.34-2.19-1.66,1.61-5.11,5.82-7.24,10.54-8.62C163.43,897.14,164.29,897.52,166.68,897.87Z" transform="translate(-79.78 -1)"/><path d="M146.15,983.84l9.95-8.79c.56.8,1.78,1.82,1.59,2.36-1.51,4.37-4.39,7.37-9.22,7.92C148,985.38,147.45,984.7,146.15,983.84Z" transform="translate(-79.78 -1)"/><path d="M142.67,961.22c-.42-2.21-1-3.38-.65-3.77,2.72-3.16,5.61-6.19,8.45-9.25.39.77,1.33,2,1.1,2.27C149,953.81,146.21,957,142.67,961.22Z" transform="translate(-79.78 -1)"/><path d="M164.48,925.41c-4.67,3.22-7.71,5.39-10.88,7.36-.3.19-1.37-.86-2.08-1.33,2.49-2.75,4.94-5.53,7.52-8.18C159.24,923.06,160.39,923.77,164.48,925.41Z" transform="translate(-79.78 -1)"/><path d="M218.24,906.05l-2.89,2.25c-2.12-3-4.26-6.09-6.29-9.2-.09-.14.86-.94,1.32-1.43Z" transform="translate(-79.78 -1)"/><path d="M226.63,932.35l-2.41,2.6a61.93,61.93,0,0,1-3.24-7.16c-.24-.74,1.06-2.82,1.46-2.77C226.15,925.51,226,928.67,226.63,932.35Z" transform="translate(-79.78 -1)"/><path d="M194.21,976.91c-1.91,1.62-3.24,3.52-4.15,3.34-1.39-.26-2.49-2-3.71-3.09,1.14-1,2.18-2.62,3.44-2.81C190.88,974.19,192.2,975.67,194.21,976.91Z" transform="translate(-79.78 -1)"/><path d="M190.29,881.15l-2.82,4.61c-.85-1.85-2.2-3.65-2.39-5.57-.13-1.27,1.39-2.71,2.17-4.08Z" transform="translate(-79.78 -1)"/><path d="M192.74,917.32l-3.58,4.57c-.67-1.22-1.86-2.45-1.84-3.66a4.36,4.36,0,0,1,2.23-3C190,915,191.37,916.38,192.74,917.32Z" transform="translate(-79.78 -1)"/><path d="M224.68,987.92c-2.61-3.25-3.86-4.27-3.68-4.69a10.89,10.89,0,0,1,2.36-2.72c.89.86,2.28,1.6,2.51,2.61S225.32,985.59,224.68,987.92Z" transform="translate(-79.78 -1)"/><path d="M657.88,757.18c.55,12.12-8,14.37-17,14.61-8.75.23-13.7-5.42-13.42-13.95.33-10.33,7.72-15.41,16.93-15.21C652.37,742.79,658.31,747.76,657.88,757.18Zm-6.67-1.45c-1.07-3-1.46-6.91-5.56-6.59-5.78.46-9.19,3.86-9.74,10-.43,4.81,2.68,6.44,6.3,6.4C648.29,765.45,649.4,760.16,651.21,755.73Z" transform="translate(-79.78 -1)"/><path d="M595.76,791.1c-10.59,0-17.26-4.35-17.08-12.9s6-16,15.51-15.72c7.59.25,14.64,3.91,14.25,13.88C608.07,785.76,603.36,790.71,595.76,791.1Zm5.4-14.84c-.64-3.19.19-7.26-5-7-5.88.31-9,3.92-9.58,9.33-.39,3.85,1.46,6.5,6.13,6.49C598.94,785.08,600.42,781.13,601.16,776.26Z" transform="translate(-79.78 -1)"/><path d="M675.63,775c.83,1.54,1.88,2.78,1.64,3.14a15.56,15.56,0,0,1-3.83,4c-.43.29-1.87-.89-2.85-1.39Z" transform="translate(-79.78 -1)"/><path d="M556.4,808.57c-.23-1.59-1-3.36-.46-3.92a9.16,9.16,0,0,1,4.54-2.64c1-.22,2.35,1,3.55,1.53Z" transform="translate(-79.78 -1)"/><path d="M679.89,730.49c-2.81,1.78-4.8,3.16-6.91,4.27-.34.17-1.29-.84-2-1.3,1.7-1.79,3.37-3.61,5.15-5.31C676.29,728,677.24,728.81,679.89,730.49Z" transform="translate(-79.78 -1)"/><path d="M649.12,791c-3.88,1.88-5.58,2.94-7.44,3.48-.72.21-1.79-.74-2.69-1.16a24.73,24.73,0,0,1,4.41-3.18C644.27,789.7,645.63,790.37,649.12,791Z" transform="translate(-79.78 -1)"/><path d="M682.76,743.5l-2.2-2.46c1.25-1,2.38-2.21,3.79-2.74.57-.22,1.73,1.11,2.63,1.74Z" transform="translate(-79.78 -1)"/><path d="M630.74,694.41c3.49,1.66,10.25-2.92,11.91,3.64,1.07,4.21-4.77,4.21-7.5,3.91-4.37-.49-10.87,5.38-12.89-2.41C620.68,693.48,626.6,695.12,630.74,694.41Z" transform="translate(-79.78 -1)"/><path d="M618.92,686.1l-4.77-3c1.62-.7,3.22-1.87,4.88-2,1.24-.06,2.55,1.27,3.83,2Z" transform="translate(-79.78 -1)"/><path d="M668.11,696.52c-3,1.41-4.16,2.37-5.3,2.37s-2.38-.95-3.57-1.48c1.26-.81,2.44-1.92,3.82-2.33C663.93,694.82,665.12,695.6,668.11,696.52Z" transform="translate(-79.78 -1)"/><path d="M594.76,704.72l2,1.85c-1.23.86-2.37,2.1-3.73,2.42-.82.2-2-1-3-1.59Z" transform="translate(-79.78 -1)"/><path d="M781.56,368.56c2.45-23,4.79-45.2,7.28-67.39.13-1.13,1.65-2.1,2.52-3.14.54,1.33,1.67,2.73,1.54,4q-3.36,32.85-7.08,65.66c-.24,2.05-1.77,3.95-2.7,5.92Z" transform="translate(-79.78 -1)"/><path d="M814.45,385c11.14,0,22.29-.09,33.43,0,1.38,0,2.74,1.09,4.11,1.67-1.25.76-2.5,2.2-3.74,2.2q-33.9-.06-67.79-.49c-1.76,0-3.51-1.13-5.26-1.72,1.95-.56,3.89-1.56,5.85-1.59C792.18,385,803.31,385,814.45,385Z" transform="translate(-79.78 -1)"/><path d="M844.54,370.3c.3-.9-.28.87-.85,2.65-.91-1.7-2.42-3.31-2.64-5.09q-3.21-26.4-6-52.86c-.12-1.21,1.23-2.57,1.89-3.86,1,1.12,2.65,2.16,2.77,3.36C841.39,332.16,842.83,349.84,844.54,370.3Z" transform="translate(-79.78 -1)"/><path d="M815.46,324.55c-1.34,4.33-2.57,8.29-3.8,12.25-.81-1.65-2.44-3.39-2.27-4.94.45-4.14,1.68-8.2,2.6-12.3Z" transform="translate(-79.78 -1)"/><path d="M808,361.53l4.45-7.48c.82,1.22,2.56,2.73,2.29,3.62a86,86,0,0,1-4.1,9.62Z" transform="translate(-79.78 -1)"/><path d="M837.06,295l-3.62,4.88c-.8-2.12-2.14-4.21-2.22-6.35-.06-1.45,1.64-3,2.55-4.46Z" transform="translate(-79.78 -1)"/><path d="M815.07,295.12l-2.8,3.62c-.83-1.21-2.34-2.45-2.31-3.64,0-1.36,1.47-2.67,2.29-4Z" transform="translate(-79.78 -1)"/><path d="M834.56,236.24l6.32,2.66c-4.8.94-9.57,2.07-14.41,2.69-1.63.21-3.44-.89-5.16-1.39Z" transform="translate(-79.78 -1)"/><path d="M792.3,236.26c.87,1.76,1.84,2.89,1.58,3.4a5.36,5.36,0,0,1-2.63,2.28c-.39.17-2-1.31-1.92-1.45A39,39,0,0,1,792.3,236.26Z" transform="translate(-79.78 -1)"/><path d="M819.1,265.12c-4.81,0-9.62,0-14.43,0-3.54-.05-7.35,2.79-10.57-.94,3.58-.77,7.13-2,10.73-2.19,8.89-.43,17.81-.51,26.72-.41,2.54,0,5.07,1.18,7.61,1.81a71.44,71.44,0,0,1-8.14,1.41c-4,.24-7.95.06-11.92.06Z" transform="translate(-79.78 -1)"/><path d="M411.09,258.61c9.57,6.64,19.77,12.77,22,25.81,1.15,6.82,5.31,10.61,11.67,12.79,14.13,4.84,17.57,18.44,23.77,29.72.3.54-.49,1.67-.77,2.53-1.59-.61-3.73-.76-4.67-1.9q-26.55-32.06-52.8-64.37C409.25,261.93,407.3,259.87,411.09,258.61Z" transform="translate(-79.78 -1)"/><path d="M362.09,321.92c-1.88,7.76,1.74,13.12,9,16.77,13.85,6.95,15.71,28.5,35,28.89-.11,1.12-.21,2.24-.32,3.36-8.31-2.82-19.24,1-24.44-9.7-4.15-8.55-10.67-14.62-18.34-20.34-11.66-8.69-6.31-21.28-4.92-32.66.06-.45,1.61-1.22,1.84-1.05a3.86,3.86,0,0,1,1.52,2.27C361.77,313.42,361.88,317.4,362.09,321.92Z" transform="translate(-79.78 -1)"/><path d="M454.65,363.82c-1.56-1.18-2.5-1.62-2.45-1.89.2-1.19.34-2.73,1.13-3.41q12.39-10.75,25-21.21c.88-.73,2.4-.68,3.63-1-.49,1.24-.64,2.84-1.52,3.67C471.94,348,463.28,355.89,454.65,363.82Z" transform="translate(-79.78 -1)"/><path d="M433.75,357a10.55,10.55,0,0,1,.16-2.9c3.4-8.64,8.91-15.36,17.72-18.9.45-.18,1.46,1,2.22,1.6q-8.84,9.74-17.69,19.44C435.88,356.53,435.24,356.52,433.75,357Z" transform="translate(-79.78 -1)"/><path d="M382.84,318.39c-.22-1.1-.72-2.07-.49-2.81a15,15,0,0,1,1.9-3.48c4.49-7,8.9-14,16.47-18.15.19-.1,1.24.94,1.23,1q-8.46,11.31-17.06,22.53C384.63,317.78,384,317.86,382.84,318.39Z" transform="translate(-79.78 -1)"/><path d="M447.41,269.07c5.72,10.05,15.08,13.18,16.81,22.22.58,3-1.86,1-2.34.44-4.69-5.26-9.31-10.59-13.78-16C447.48,274.93,447.82,273.39,447.41,269.07Z" transform="translate(-79.78 -1)"/><path d="M481.67,351.39l-2-1.59,8.28-6.66c.39.93,1.21,1.93,1.09,2.79C488.5,349.73,485.64,350.83,481.67,351.39Z" transform="translate(-79.78 -1)"/><path d="M384.5,283.4a23,23,0,0,1-1.76-2c2.55-2.83,5.17-5.61,7.87-8.3.12-.12,1.13.65,1.73,1Z" transform="translate(-79.78 -1)"/><path d="M418.67,343.34c-.9-1.89-1.7-3-1.49-3.23,1.68-2.11,3.55-4.06,5.37-6.06.47.87,1.56,2.15,1.3,2.56A78.77,78.77,0,0,1,418.67,343.34Z" transform="translate(-79.78 -1)"/><path d="M400.68,319.76l-2.46-2.2,6.48-6.65c.33.53,1.08,1.32.94,1.54C404.15,314.81,402.53,317.08,400.68,319.76Z" transform="translate(-79.78 -1)"/><path d="M354.15,359.14l3.12-3.31c.59,1,1.69,2,1.63,2.92s-1.14,2.12-1.78,3.17Z" transform="translate(-79.78 -1)"/><path d="M471.88,365.5c-1.57,1.07-2.56,2.26-3.47,2.21s-1.52-1.48-2.28-2.3c1-.8,1.84-1.88,2.95-2.27C469.54,363,470.52,364.31,471.88,365.5Z" transform="translate(-79.78 -1)"/><path d="M472,294.36a45.38,45.38,0,0,1,2.85,3.9,5.35,5.35,0,0,1-1.62,1.37,15.58,15.58,0,0,1-3-3C470.06,296.49,471.09,295.46,472,294.36Z" transform="translate(-79.78 -1)"/><path d="M435.4,316.3c1.07-1,2.07-2.22,2.3-2.09a6,6,0,0,1,2.39,2.35c.19.38-.88,1.38-1.37,2.1Z" transform="translate(-79.78 -1)"/><path d="M349.93,884.13c1.42,6.9,2.22,8.36,1.79,9-7.22,11.1-5.25,22.73-2.37,34.5.31,1.31-.3,2.85-.48,4.27-1.19-.95-3-1.65-3.49-2.88-4.65-11.63-5.66-23.35-.11-35Z" transform="translate(-79.78 -1)"/><path d="M408.31,897.88c4.44.07,17.14,22.72,15.21,26.3-.26.5-1.75.93-1.77.88q-7.47-13-14.69-26.14C407,898.81,408.08,898.07,408.31,897.88Z" transform="translate(-79.78 -1)"/><path d="M362.63,936.45l-1.64,2.3c-1.75-4.82-3.57-9.63-5.17-14.51-.2-.62.73-1.61,1.13-2.42C361.88,925.38,360.66,931.23,362.63,936.45Z" transform="translate(-79.78 -1)"/><path d="M372.67,930.59c2.21,4.26,4.09,7.54,5.53,11,.24.59-1.42,2-2.21,3-1.84-3.74-3.71-7.46-5.45-11.25C370.42,933.07,371.27,932.36,372.67,930.59Z" transform="translate(-79.78 -1)"/><path d="M392.43,947.44c1.28,2.09,2.27,3.12,2.48,4.3.11.59-1.62,2.16-1.82,2a6.69,6.69,0,0,1-2.91-2.61C389.93,950.62,391.22,949.37,392.43,947.44Z" transform="translate(-79.78 -1)"/><path d="M395.48,883.81c-1.32,1-2.17,2-3,2s-1.47-1.23-2.2-1.92c.84-.66,1.61-1.62,2.55-1.85C393.39,881.93,394.23,883,395.48,883.81Z" transform="translate(-79.78 -1)"/><path d="M402.78,897c-1.35.67-2.14,1.35-2.92,1.33-.45,0-.88-1.15-1.32-1.78a6.54,6.54,0,0,1,2.21-1.13C401.23,895.35,401.8,896.17,402.78,897Z" transform="translate(-79.78 -1)"/><path d="M507.23,52.38c-6.08,4.07-10.86,7.32-15.75,10.39-.31.19-1.53-1.07-2.32-1.66,4.47-3.67,8.89-7.41,13.49-10.92C503,49.89,504.58,51.07,507.23,52.38Z" transform="translate(-79.78 -1)"/><path d="M446.09,62,443,59.58c5.11-4.12,10.2-8.26,15.39-12.27.24-.18,1.38.81,2.1,1.26Z" transform="translate(-79.78 -1)"/><path d="M475.8,58c.5,1.22,1.27,2.28,1,2.67a6.7,6.7,0,0,1-2.62,2.17c-.36.19-1.16-.49-1.77-.78Z" transform="translate(-79.78 -1)"/><path d="M396,97.82l1.88,2.14c-4.67,4-9.3,8-14.06,11.92-.32.26-1.52-.54-2.31-.85Z" transform="translate(-79.78 -1)"/><path d="M387.52,97.18c-4.65,2.28-8.33,4.16-12.1,5.83-.31.14-1.21-1-1.84-1.61,3.64-2.15,7.26-4.34,11-6.36C384.84,94.88,385.77,95.89,387.52,97.18Z" transform="translate(-79.78 -1)"/><path d="M429.81,106.08c-3.81,2.55-6.9,4.73-10.14,6.67-.38.23-1.53-.8-2.32-1.24,3.21-2.46,6.39-5,9.66-7.31C427.2,104.06,428.12,104.92,429.81,106.08Z" transform="translate(-79.78 -1)"/><path d="M394.84,163l-2.44-2.88c5.34-3.87,10.67-7.76,16.07-11.54.1-.07,1.61,1.31,1.49,1.55C406.87,156.42,401.14,159.51,394.84,163Z" transform="translate(-79.78 -1)"/><path d="M361.43,152.23l3.43,1.85c-5,3.29-9.86,6.69-15,9.74-.71.42-2.48-1-3.76-1.5Z" transform="translate(-79.78 -1)"/><path d="M381.45,159.64c-4.13,2.27-7.35,4.08-10.64,5.76-.23.12-1-.75-1.46-1.16,3.07-2.12,6.11-4.28,9.24-6.3C378.84,157.78,379.71,158.58,381.45,159.64Z" transform="translate(-79.78 -1)"/><path d="M475.86,163.19l-2.49-1.86c4.53-2.73,9.06-5.48,13.64-8.13.29-.16,1.08.55,1.64.85Z" transform="translate(-79.78 -1)"/><path d="M461.69,155.8c-3.95,2.16-7.07,3.93-10.27,5.53-.36.18-1.19-.57-1.8-.89,3.05-2.44,6.09-4.91,9.22-7.25A26.21,26.21,0,0,1,461.69,155.8Z" transform="translate(-79.78 -1)"/><path d="M505,163.49c-1.57.64-2.54,1.41-3.38,1.27s-1.22-1.27-1.82-2c.91-.56,1.77-1.42,2.73-1.54C503.06,161.18,503.76,162.32,505,163.49Z" transform="translate(-79.78 -1)"/><path d="M485,108.76,482.39,106c3.78-2.35,7.53-4.75,11.4-7,.36-.2,1.42.81,2.15,1.26Z" transform="translate(-79.78 -1)"/><path d="M503.11,105.61a20.63,20.63,0,0,1,1.8,2.69q-4.14,4-8.54,7.69c-.24.2-1.2-.44-1.82-.7Z" transform="translate(-79.78 -1)"/></g></g></svg>